<?xml version="1.0" standalone="no"?>
<!DOCTYPE svg PUBLIC "-//W3C//DTD SVG 20010904//EN"
 "http://www.w3.org/TR/2001/REC-SVG-20010904/DTD/svg10.dtd">
<svg version="1.0" xmlns="http://www.w3.org/2000/svg"
 width="821.000000pt" height="750.000000pt" viewBox="0 0 821.000000 750.000000"
 preserveAspectRatio="xMidYMid meet">

<g transform="translate(0.000000,750.000000) scale(0.100000,-0.100000)"
fill="#000000" stroke="none">
<path d="M0 3750 l0 -3750 4105 0 4105 0 0 3750 0 3750 -4105 0 -4105 0 0
-3750z m4258 3395 c167 -45 300 -126 392 -236 212 -255 226 -596 36 -893 -94
-147 -130 -254 -131 -386 0 -81 4 -102 24 -145 53 -107 169 -184 291 -193 182
-12 332 71 401 223 48 106 43 159 -46 455 -45 153 -51 278 -17 367 27 72 71
145 82 138 6 -3 7 0 4 8 -13 35 153 142 256 166 198 46 438 -58 528 -228 57
-105 50 -241 -15 -303 -60 -58 -148 -72 -187 -29 -15 16 -15 19 -1 31 11 9 19
10 27 2 16 -16 63 5 93 40 29 35 34 107 11 163 -25 60 -102 132 -165 156 -171
64 -352 -10 -427 -173 -24 -53 -28 -76 -28 -143 0 -75 3 -87 52 -193 63 -136
81 -199 89 -319 14 -205 -53 -349 -220 -476 -254 -195 -545 -191 -767 9 -22
20 -40 34 -40 31 0 -16 156 -192 202 -228 70 -55 170 -104 265 -130 66 -18 95
-21 188 -16 171 8 287 59 398 176 68 71 104 143 147 296 18 61 45 137 60 170
33 70 97 148 112 139 6 -4 8 -2 5 4 -9 13 42 56 104 88 138 69 317 71 452 3
67 -34 149 -100 143 -116 -3 -8 -2 -11 3 -8 13 8 55 -50 86 -117 37 -80 49
-167 35 -248 -12 -72 -51 -157 -70 -152 -6 1 -8 -2 -5 -8 9 -15 -30 -56 -81
-86 -62 -36 -130 -42 -183 -15 -44 23 -66 57 -49 79 15 17 24 15 52 -13 31
-30 71 -26 130 13 119 81 119 282 -1 422 -128 149 -363 160 -471 23 -45 -58
-57 -87 -107 -254 -25 -85 -61 -188 -81 -229 -42 -89 -110 -183 -126 -174 -6
4 -8 3 -5 -3 16 -26 -144 -147 -265 -202 -118 -52 -196 -66 -378 -66 -192 1
-277 16 -385 69 -86 42 -158 93 -150 106 3 5 0 7 -7 5 -14 -6 -148 119 -148
137 0 5 5 6 12 2 7 -4 8 -3 4 5 -4 6 -11 9 -16 6 -10 -6 -65 70 -86 121 -18
44 -29 40 -13 -5 6 -17 8 -39 4 -48 -3 -10 -3 -14 1 -10 4 4 22 -31 39 -78 18
-48 47 -109 64 -136 35 -57 38 -67 14 -48 -16 13 -17 12 -4 -4 8 -9 16 -15 19
-12 7 6 32 -15 32 -27 0 -5 -5 -6 -12 -2 -7 4 -8 3 -4 -5 4 -6 11 -9 15 -7 4
3 30 -18 57 -45 27 -28 77 -71 112 -96 34 -25 60 -49 57 -53 -3 -5 0 -12 6
-16 8 -4 9 -3 5 4 -9 15 -1 15 25 1 11 -5 16 -15 13 -21 -4 -7 -3 -8 4 -4 6 4
26 -1 43 -10 25 -13 29 -18 18 -26 -11 -8 -10 -8 5 -4 20 7 224 -96 291 -147
55 -42 115 -99 115 -110 0 -5 -7 -4 -15 3 -24 20 -18 5 7 -16 12 -10 18 -13
14 -6 -17 29 6 9 29 -26 97 -147 108 -332 30 -497 -35 -72 -155 -201 -179
-192 -9 4 -15 1 -13 -5 3 -18 -76 -58 -181 -91 -88 -28 -109 -30 -237 -31
-131 0 -146 2 -227 31 -104 36 -205 94 -276 158 -56 50 -65 70 -29 60 19 -5
20 -4 4 5 -9 6 -22 8 -27 5 -6 -4 -21 18 -35 47 -29 61 -34 158 -11 211 18 42
54 79 68 71 7 -4 8 -2 4 4 -12 20 43 46 100 46 61 1 73 -7 81 -57 7 -44 -16
-60 -47 -32 -23 21 -52 13 -80 -22 -26 -33 -26 -101 0 -152 10 -21 17 -41 15
-45 -3 -3 -2 -4 1 -1 4 2 25 -11 48 -29 134 -108 313 -153 499 -126 105 15
189 52 257 116 86 80 114 170 86 269 -30 100 -109 165 -330 270 -72 34 -176
88 -231 120 -114 66 -229 160 -221 182 3 8 2 11 -3 8 -12 -7 -65 69 -98 141
-17 38 -27 81 -32 142 l-6 87 -18 -70 c-62 -243 -137 -446 -202 -545 -24 -36
-69 -93 -99 -127 -69 -76 -188 -166 -160 -121 4 7 3 8 -5 4 -6 -4 -9 -11 -6
-16 5 -8 -64 -54 -120 -79 -133 -59 -362 -79 -527 -46 -44 9 -148 41 -229 71
-226 82 -339 91 -420 33 -45 -31 -82 -103 -81 -155 0 -47 31 -107 63 -125 11
-5 18 -13 15 -17 -2 -4 22 -7 53 -7 58 0 101 19 128 54 9 12 14 13 24 4 31
-31 -31 -114 -100 -133 -165 -44 -321 126 -282 308 24 108 84 181 191 231 52
24 64 26 205 25 118 0 183 -6 305 -28 328 -59 473 -29 656 138 34 30 65 52 69
48 5 -4 5 -2 1 5 -3 6 14 41 39 76 88 126 133 258 160 462 8 66 17 138 20 160
5 36 2 33 -34 -40 -53 -105 -122 -195 -224 -291 -98 -92 -163 -133 -294 -186
-150 -60 -270 -81 -438 -75 -116 4 -153 9 -218 31 -158 53 -249 111 -397 250
-89 84 -191 159 -255 186 -112 48 -276 3 -370 -102 -100 -110 -123 -280 -58
-437 4 -10 1 -11 -8 -6 -8 5 -11 4 -6 -1 5 -5 12 -9 15 -9 4 0 26 -21 50 -47
99 -107 249 -127 340 -43 34 31 37 37 37 92 0 46 4 58 17 61 24 5 48 -37 48
-85 0 -46 -18 -96 -31 -87 -5 3 -6 -1 -4 -8 7 -18 -38 -60 -95 -89 -84 -44
-241 -34 -329 19 -71 43 -157 140 -187 211 -44 100 -56 231 -33 343 21 100
124 279 151 262 6 -4 8 -3 5 3 -16 25 100 102 208 138 200 67 432 12 630 -150
44 -37 79 -71 77 -76 -1 -6 2 -7 8 -4 6 4 19 1 28 -7 9 -8 37 -26 62 -40 239
-132 528 -115 754 46 119 85 314 323 285 350 -9 8 -10 8 -5 -1 9 -16 -86 -117
-153 -162 -130 -88 -237 -116 -418 -108 -238 10 -422 95 -542 250 -25 33 -40
61 -35 68 4 8 3 9 -5 5 -8 -5 -37 46 -92 161 -44 92 -93 194 -110 225 -32 63
-35 73 -16 62 7 -4 9 -3 4 2 -5 5 -12 9 -17 9 -14 0 -81 96 -74 107 4 6 3 8
-3 5 -6 -4 -30 11 -54 32 -83 73 -200 115 -290 105 -67 -7 -149 -33 -199 -61
-181 -104 -236 -338 -115 -481 111 -129 334 -102 335 41 0 35 21 32 34 -5 13
-36 -1 -93 -31 -128 -57 -68 -165 -95 -266 -66 -59 17 -144 75 -139 95 1 7 -2
10 -7 6 -15 -9 -60 64 -81 134 -26 82 -26 177 1 266 21 73 87 182 107 178 6
-2 9 3 6 11 -6 16 61 76 131 116 95 54 181 73 313 68 128 -4 186 -22 298 -89
73 -44 198 -164 188 -180 -4 -7 -3 -9 4 -6 15 10 74 -78 157 -234 85 -159 115
-205 186 -283 137 -150 393 -180 609 -71 36 19 74 41 85 50 17 14 16 14 -15
-1 -128 -63 -327 -82 -443 -43 -166 56 -292 183 -331 335 -18 68 -20 195 -7
290 5 34 28 108 51 165 46 113 70 195 70 247 0 47 -36 141 -66 173 -16 17 -23
32 -19 40 5 7 4 10 -2 6 -5 -4 -28 6 -49 22 -133 95 -319 104 -440 20 -53 -36
-73 -64 -81 -113 -10 -62 34 -113 86 -99 16 4 21 1 21 -14 0 -74 -126 -48
-172 37 -24 43 -20 138 7 190 32 61 108 125 192 161 69 29 91 33 188 37 99 4
118 1 185 -22 103 -36 170 -84 230 -163 114 -151 121 -298 30 -642 -27 -104
-32 -136 -28 -200 5 -81 40 -175 80 -218 11 -12 17 -26 14 -31 -3 -5 2 -16 11
-23 12 -10 14 -10 9 -1 -12 20 4 14 36 -13 105 -89 280 -109 421 -49 34 14 70
27 79 27 9 1 15 3 13 5 -2 2 9 21 24 43 16 21 34 58 41 83 12 44 11 47 -25
117 -31 60 -37 81 -35 123 8 153 9 146 -51 242 -86 137 -106 174 -129 244 -82
253 -22 524 161 724 99 109 270 201 426 231 113 21 282 13 401 -20z m-1673
-769 c-5 -15 -4 -17 3 -7 8 11 12 10 21 -7 27 -50 1 -58 -29 -9 -24 38 -26 59
-5 51 10 -4 14 -14 10 -28z m71 -111 c8 -34 -2 -57 -23 -53 -19 3 -29 38 -19
64 9 23 35 16 42 -11z m2800 -49 c8 -31 2 -76 -11 -79 -5 -1 -11 22 -13 51 -3
54 12 73 24 28z m-2826 -66 c0 -17 -7 -45 -16 -62 -16 -30 -17 -31 -30 -13
-12 17 -12 34 3 88 2 9 13 17 24 17 15 0 19 -7 19 -30z m2887 -105 c27 -47 26
-80 -2 -80 -26 0 -69 76 -60 105 10 31 36 20 62 -25z m-2935 -64 c-1 -23 -10
-54 -19 -68 -16 -24 -17 -24 -30 -7 -25 33 3 128 35 122 13 -3 16 -13 14 -47z
m2991 -69 c37 -40 46 -122 13 -122 -21 0 -46 35 -53 73 -10 61 9 84 40 49z
m-3045 -54 c13 -13 5 -97 -10 -113 -14 -15 -38 23 -38 61 0 59 20 80 48 52z
m3108 -140 c18 -35 15 -111 -6 -131 -22 -23 -50 28 -50 92 0 32 3 61 7 64 14
15 33 5 49 -25z m-3576 -45 c27 -42 28 -49 15 -62 -13 -13 -17 -12 -36 5 -25
22 -52 81 -44 94 13 21 37 8 65 -37z m94 -134 c31 -37 37 -103 9 -113 -35 -14
-96 85 -80 128 10 26 43 18 71 -15z m4132 -1 c10 -15 -24 -38 -57 -38 -33 0
-45 15 -29 35 15 18 76 20 86 3z m-662 -4 c38 -15 7 -144 -35 -144 -40 0 -41
88 -1 133 17 20 15 19 36 11z m776 -43 c7 -14 6 -20 -5 -25 -15 -5 -55 25 -55
42 0 29 42 16 60 -17z m-260 13 c0 -14 -54 -74 -66 -74 -22 0 -16 19 15 51 27
26 51 38 51 23z m349 -90 c31 -35 33 -54 6 -54 -18 0 -55 48 -55 71 0 28 14
23 49 -17z m-4249 -54 c25 -25 60 -94 60 -118 0 -31 -22 -43 -50 -29 -32 15
-84 118 -75 146 8 26 39 27 65 1z m3804 -17 c-12 -49 -23 -73 -34 -73 -19 0
-22 27 -6 64 18 44 50 51 40 9z m-458 -27 c8 -20 -24 -83 -54 -106 -31 -25
-72 -27 -72 -3 0 23 47 100 68 112 25 15 52 13 58 -3z m951 -36 c7 -19 8 -32
1 -36 -12 -8 -14 -5 -21 34 -8 40 5 42 20 2z m-540 -121 c-6 -47 -19 -64 -41
-56 -33 13 -6 97 31 97 13 0 15 -8 10 -41z m-3641 -16 c28 -18 64 -81 64 -113
0 -11 -7 -23 -15 -26 -20 -8 -68 24 -59 38 4 7 3 8 -4 4 -16 -9 -52 51 -52 87
0 32 26 37 66 10z m3082 -4 c7 -38 -104 -107 -130 -81 -13 13 9 55 24 46 7 -4
8 -3 4 4 -9 15 52 53 79 50 11 -2 21 -10 23 -19z m-204 -121 c-9 -15 -85 -48
-111 -48 -37 0 -26 18 29 49 40 23 56 27 70 20 10 -6 16 -15 12 -21z m701 -25
c-9 -39 -54 -105 -65 -98 -24 15 -2 80 38 113 25 19 35 14 27 -15z m-3410 -43
c16 -6 23 -14 19 -22 -5 -7 -3 -8 5 -3 17 10 61 -33 61 -61 0 -12 -7 -25 -16
-28 -35 -14 -135 57 -119 85 5 7 4 10 -2 6 -12 -7 -25 17 -16 27 9 9 38 7 68
-4z m3305 -144 c0 -26 -8 -41 -35 -65 -39 -34 -57 -38 -73 -18 -13 15 1 40 46
90 37 39 62 36 62 -7z m-3054 3 c55 -23 68 -37 52 -56 -23 -28 -129 -6 -154
32 -9 13 -13 29 -9 35 10 16 59 12 111 -11z m3469 -33 c66 -30 108 -64 98 -79
-3 -6 -1 -7 5 -3 18 11 80 -82 102 -153 47 -147 9 -321 -92 -420 -63 -63 -120
-88 -204 -90 -65 -2 -82 2 -118 23 -69 40 -98 105 -61 136 18 15 31 5 37 -25
2 -10 18 -30 37 -42 87 -59 225 5 282 131 23 52 25 162 3 214 -53 128 -211
183 -344 121 -30 -14 -78 -47 -106 -72 -28 -26 -54 -44 -57 -41 -3 3 -8 0 -13
-7 -4 -8 -3 -10 4 -5 19 11 14 -5 -12 -38 -13 -17 -35 -55 -50 -84 -15 -29
-31 -50 -36 -47 -5 3 -8 0 -5 -7 3 -7 -13 -45 -35 -85 -30 -54 -45 -71 -58
-68 -11 2 -19 -3 -19 -11 0 -10 4 -11 14 -3 7 7 13 7 13 2 0 -29 -218 -233
-249 -233 -5 0 -30 38 -54 85 l-44 85 51 39 c128 99 180 162 302 368 52 89 89
141 96 137 7 -5 8 -2 3 5 -8 14 33 63 46 55 5 -3 6 3 2 12 -5 14 -3 16 11 11
9 -4 15 -3 11 2 -11 19 109 92 182 111 72 18 192 7 258 -24z m-3189 0 c14 -11
16 -17 7 -27 -15 -15 -91 -29 -126 -22 -36 7 -54 38 -30 52 27 16 126 13 149
-3z m-1217 -40 c10 -12 8 -19 -8 -35 -25 -25 -54 -27 -71 -6 -10 13 -10 19 5
35 21 23 58 26 74 6z m121 -1 c41 -21 39 -45 -4 -45 -37 0 -62 21 -52 45 7 19
19 19 56 0z m3727 -61 c12 -33 -76 -114 -124 -114 -43 0 -39 28 13 81 51 52
98 66 111 33z m-3987 -5 c0 -18 -54 -89 -67 -89 -23 0 -14 37 16 69 29 31 51
40 51 20z m398 -31 c10 -13 12 -19 12 -37 0 -5 8 -12 17 -15 15 -6 15 -4 -2
14 -22 24 -9 27 17 3 18 -17 25 -53 9 -53 -11 0 -81 77 -81 90 0 14 15 12 28
-2z m3377 -78 c10 -16 -13 -48 -53 -75 -67 -46 -172 -25 -127 25 35 39 165 75
180 50z m-3884 -63 c-6 -6 -11 -19 -11 -28 0 -10 -5 -21 -12 -25 -8 -5 -9 2
-5 26 8 39 29 69 35 50 2 -6 -1 -17 -7 -23z m3299 22 c54 -12 70 -29 50 -54
-33 -39 -180 7 -180 56 0 12 68 11 130 -2z m-2593 -51 c60 -48 64 -53 45 -61
-32 -14 -79 10 -113 56 -55 76 -25 78 68 5z m1283 14 c0 -14 -69 -84 -77 -79
-4 3 -17 -1 -28 -9 -10 -8 -14 -14 -9 -14 6 0 15 5 22 12 7 7 12 8 12 4 0 -13
-33 -35 -52 -36 -10 0 -18 6 -18 13 0 19 35 49 45 40 4 -5 5 -3 2 3 -7 11 19
38 63 66 24 15 40 15 40 0z m1621 8 c42 -23 9 -70 -49 -70 -86 0 -158 44 -115
69 23 14 139 14 164 1z m-2683 -147 c63 -41 67 -73 11 -73 -51 0 -119 47 -119
82 0 28 58 23 108 -9z m827 -14 c10 -15 -31 -55 -79 -77 -51 -24 -100 -36 -92
-24 3 6 -2 9 -11 8 -27 -2 -27 31 0 49 23 15 137 52 164 54 6 1 15 -4 18 -10z
m1022 -92 c55 -56 59 -63 44 -86 -13 -20 -54 -7 -91 31 -44 44 -63 75 -56 93
11 29 49 15 103 -38z m-1618 32 c64 -13 80 -31 49 -53 -28 -20 -78 -21 -122
-2 -41 17 -52 32 -36 51 15 18 42 19 109 4z m299 -15 c34 -10 25 -45 -18 -66
-49 -24 -112 -23 -135 2 -26 29 -12 48 42 55 26 4 53 8 58 10 16 5 28 5 53 -1z
m1486 -130 c9 -3 13 -10 10 -15 -3 -5 2 -6 10 -3 21 8 79 -47 71 -69 -10 -23
-61 -22 -102 3 -37 22 -68 64 -58 80 7 11 44 13 69 4z m-557 -100 c-13 -44
-78 -104 -112 -104 -15 0 -25 6 -25 14 0 18 71 109 101 130 34 23 50 5 36 -40z
m813 -26 c49 -26 66 -47 57 -72 -13 -34 -127 -3 -160 44 -36 51 25 67 103 28z
m187 -120 c33 -31 29 -47 -4 -17 l-28 24 24 -27 c13 -15 28 -25 32 -22 15 9
30 -45 19 -67 -15 -28 -28 -24 -76 25 -33 33 -44 51 -44 75 0 27 3 31 27 31
15 0 37 -10 50 -22z m-1173 -6 c8 -14 -33 -74 -46 -66 -6 4 -8 3 -5 -3 16 -26
-75 -69 -106 -51 -37 20 -6 57 88 107 43 22 61 26 69 13z m-244 -138 c0 -29
-19 -52 -57 -67 -42 -16 -96 -12 -113 8 -13 16 -6 22 70 52 67 26 100 29 100
7z m-421 -50 c11 -3 11 -8 3 -16 -8 -8 -19 -8 -41 2 -59 24 -29 35 38 14z
m1881 -9 c0 -33 -20 -75 -37 -75 -23 0 -27 30 -10 66 20 40 47 46 47 9z
m-1692 -7 c2 -12 -8 -20 -37 -29 -34 -10 -44 -9 -66 5 -14 9 -25 23 -25 32 0
23 123 16 128 -8z m1601 -124 c-17 -21 -69 -47 -69 -34 0 5 17 18 38 29 46 25
48 25 31 5z m-3929 -504 c195 -22 334 -83 444 -194 248 -248 251 -699 6 -947
-67 -68 -191 -146 -211 -133 -7 4 -9 3 -5 -4 8 -13 -98 -49 -202 -68 -95 -17
-757 -20 -767 -4 -8 12 61 43 76 35 5 -4 8 -1 7 7 -2 7 2 12 7 11 6 -1 12 6
14 15 2 9 5 268 7 574 4 482 2 562 -11 594 -8 20 -12 40 -9 45 3 5 0 8 -8 7
-7 -2 -12 3 -10 10 1 8 -2 11 -7 7 -15 -9 -71 23 -71 40 0 13 46 15 328 15
180 0 365 -5 412 -10z m1819 -146 c7 -86 11 -158 8 -160 -10 -11 -35 11 -67
59 -40 59 -78 87 -158 118 -47 17 -87 22 -224 26 l-168 6 0 -252 0 -251 160 0
c192 0 222 9 248 70 13 30 23 40 40 40 22 0 22 0 22 -175 l0 -175 -25 0 c-20
0 -27 6 -32 30 -9 46 -65 90 -116 91 -23 0 -98 1 -167 2 l-125 2 -3 -269 -2
-268 187 4 c231 5 276 18 363 106 30 31 60 56 65 57 6 0 10 14 10 30 0 27 4
30 32 33 31 3 32 2 28 -25 -6 -37 -44 -251 -51 -285 l-6 -28 -503 0 c-379 0
-506 3 -511 12 -4 6 -2 14 4 16 33 11 79 52 95 83 16 34 18 79 17 584 0 612 3
585 -73 625 -91 48 -76 50 452 50 l487 0 13 -156z m681 142 c0 -7 -13 -19 -30
-26 -45 -19 -63 -54 -56 -109 6 -47 277 -861 286 -861 5 0 153 397 228 611
l34 96 -27 75 c-35 98 -56 132 -104 165 -22 16 -40 36 -41 46 0 16 15 17 179
17 134 0 180 -3 184 -12 2 -7 77 -233 167 -503 90 -269 164 -492 166 -494 10
-11 8 -16 209 544 54 149 101 287 106 309 12 46 -5 77 -57 108 -19 11 -34 26
-34 34 0 11 33 14 185 14 155 0 185 -2 185 -15 0 -8 -16 -22 -36 -31 -35 -17
-88 -78 -103 -119 -131 -356 -195 -523 -200 -521 -3 2 -7 -8 -7 -22 -1 -15
-52 -164 -114 -332 -61 -168 -114 -313 -117 -323 -5 -15 -16 -17 -87 -15 l-81
3 -65 180 c-36 99 -106 291 -155 427 -50 136 -93 244 -96 240 -4 -4 -57 -142
-119 -307 -61 -165 -127 -338 -145 -385 -18 -47 -38 -102 -45 -123 l-12 -38
-80 3 -81 3 -37 105 c-149 419 -224 631 -260 730 -23 63 -64 178 -91 255 -56
158 -83 204 -137 231 -37 19 -52 32 -52 47 0 4 122 7 270 7 223 0 270 -2 270
-14z m2220 -1 c0 -8 -15 -21 -33 -29 -46 -19 -87 -70 -87 -109 -1 -28 0 -562
0 -966 l0 -144 138 6 c76 4 163 12 193 18 116 25 221 102 251 186 10 27 17 33
40 33 15 0 28 -2 28 -4 0 -3 -9 -51 -19 -108 -11 -57 -22 -121 -25 -143 -4
-22 -9 -52 -12 -67 l-6 -28 -489 0 c-520 0 -533 1 -452 45 76 41 73 16 74 632
0 354 -4 560 -11 577 -13 34 -27 49 -68 70 -18 9 -32 23 -32 31 0 13 37 15
255 15 219 0 255 -2 255 -15z m1476 -82 c20 -54 91 -235 156 -403 65 -168 116
-311 113 -318 -2 -7 -1 -11 3 -8 5 3 39 -72 77 -167 37 -95 79 -194 92 -220
13 -26 21 -53 17 -59 -4 -6 -3 -8 3 -5 6 4 19 -3 29 -14 10 -12 31 -27 46 -35
16 -8 28 -21 28 -29 0 -13 -37 -15 -254 -15 -273 0 -298 5 -228 45 19 11 44
33 56 48 l21 28 -29 77 c-16 42 -29 87 -30 99 -1 11 -4 19 -8 17 -3 -2 -15 19
-26 48 l-20 53 -254 3 -255 2 -25 -67 c-14 -38 -38 -103 -54 -146 -27 -72 -28
-79 -14 -105 9 -15 32 -36 53 -47 21 -11 37 -28 37 -37 0 -17 -16 -18 -189
-18 l-188 0 4 25 c3 14 15 27 27 31 40 12 83 53 106 101 12 26 73 181 135 343
62 162 149 386 193 498 45 112 84 219 88 238 8 42 -12 76 -55 94 -17 7 -31 19
-31 26 0 11 32 14 169 14 l169 0 38 -97z m-5547 -1704 c27 -5 70 -24 97 -40
l47 -31 -35 -34 -34 -35 -45 25 c-84 49 -189 24 -189 -43 0 -41 24 -57 134
-87 145 -40 196 -93 182 -187 -8 -52 -42 -111 -58 -101 -7 4 -8 3 -4 -4 13
-22 -55 -46 -134 -46 -94 -1 -159 17 -206 58 l-37 32 31 35 31 34 28 -18 c53
-34 97 -49 146 -49 85 1 128 52 92 110 l-18 27 27 -24 c14 -14 26 -20 26 -15
0 10 -39 38 -55 39 -5 0 -51 11 -101 23 -146 38 -188 74 -186 162 2 90 52 148
147 171 44 10 59 10 114 -2z m3116 -9 c21 -7 32 -16 29 -22 -5 -7 -2 -8 5 -4
18 11 82 -35 115 -82 40 -58 55 -107 56 -183 1 -199 -199 -336 -403 -275 -53
16 -110 53 -101 67 3 5 0 8 -7 7 -18 -4 -76 85 -90 135 -27 100 16 237 95 301
82 68 200 89 301 56z m891 0 c31 -10 72 -31 90 -45 44 -33 88 -100 78 -116 -4
-8 -3 -9 4 -5 33 20 40 -160 8 -234 -20 -48 -55 -92 -68 -84 -7 4 -8 2 -4 -4
9 -14 -73 -68 -124 -82 -81 -23 -213 -2 -262 41 -12 11 -17 18 -10 14 17 -9
15 0 -5 16 -11 10 -14 10 -9 2 4 -7 3 -13 -3 -13 -16 0 -70 81 -87 133 -20 61
-15 177 10 225 9 18 33 51 53 73 28 31 40 38 59 33 14 -4 24 -2 24 5 0 6 -7 8
-15 5 -27 -11 -16 5 15 21 73 38 166 44 246 15z m-2494 -10 c9 -16 238 -551
238 -557 0 -1 -24 -3 -54 -3 l-54 0 -22 55 c-22 55 -22 56 -4 71 14 11 14 13
2 7 -9 -4 -80 -7 -158 -5 l-142 3 17 27 17 27 -24 -25 c-14 -14 -22 -27 -18
-30 5 -3 -3 -33 -17 -67 l-25 -63 -55 0 c-30 0 -53 4 -51 9 56 145 203 479
209 476 4 -3 11 0 15 6 4 8 3 9 -4 5 -15 -9 -15 -4 3 41 15 37 16 38 66 38 35
0 55 -5 61 -15z m3323 -6 c74 -26 149 -105 171 -179 29 -101 3 -206 -70 -283
-64 -69 -143 -92 -313 -92 l-123 0 0 291 0 292 143 -6 c100 -3 157 -10 192
-23z m-3975 -29 l0 -45 -145 0 -145 0 0 -75 0 -75 130 0 130 0 0 -42 0 -43
-127 3 c-84 2 -131 7 -136 15 -6 8 -7 5 -3 -6 3 -10 6 -52 6 -93 l0 -74 150 0
150 0 0 -45 0 -45 -204 0 -205 0 -1 285 0 285 200 0 200 0 0 -45z m1580 0 c0
-40 -3 -45 -22 -46 -13 0 -77 -1 -143 -2 l-120 -2 -3 -77 -3 -78 121 0 120 0
0 -46 c0 -45 0 -46 -32 -43 -18 1 -72 1 -120 0 l-88 -1 0 -115 0 -115 -55 0
-55 0 0 285 0 285 200 0 200 0 0 -45z"/>
<path d="M2458 6643 c7 -3 16 -2 19 1 4 3 -2 6 -13 5 -11 0 -14 -3 -6 -6z"/>
<path d="M4177 5950 c-21 -12 -43 -18 -49 -14 -6 4 -8 3 -5 -3 4 -5 -7 -23
-24 -39 -50 -48 -79 -108 -86 -177 -3 -40 -1 -71 6 -85 17 -33 26 -27 29 20 6
93 73 192 157 234 46 22 63 25 101 19 25 -3 54 -15 65 -26 24 -24 29 -24 29 1
0 11 -13 34 -29 52 -25 29 -35 32 -92 35 -50 3 -72 -1 -102 -17z"/>
<path d="M3427 5949 c7 -7 15 -10 18 -7 3 3 -2 9 -12 12 -14 6 -15 5 -6 -5z"/>
<path d="M2195 5900 c10 -11 20 -20 23 -20 3 0 -3 9 -13 20 -10 11 -20 20 -23
20 -3 0 3 -9 13 -20z"/>
<path d="M3915 5911 c-3 -5 -2 -12 3 -15 5 -3 9 1 9 9 0 17 -3 19 -12 6z"/>
<path d="M1430 5885 c-7 -9 -8 -15 -2 -15 5 0 12 7 16 15 3 8 4 15 2 15 -2 0
-9 -7 -16 -15z"/>
<path d="M3758 5893 c7 -3 16 -2 19 1 4 3 -2 6 -13 5 -11 0 -14 -3 -6 -6z"/>
<path d="M3575 5860 c-3 -6 1 -7 9 -4 18 7 21 14 7 14 -6 0 -13 -4 -16 -10z"/>
<path d="M4245 5778 c-32 -17 -76 -61 -91 -91 -17 -31 -26 -119 -12 -111 5 3
14 1 21 -4 35 -28 130 26 161 92 40 85 -7 154 -79 114z"/>
<path d="M5207 5359 c7 -7 15 -10 18 -7 3 3 -2 9 -12 12 -14 6 -15 5 -6 -5z"/>
<path d="M1775 5300 c-3 -6 1 -7 9 -4 18 7 21 14 7 14 -6 0 -13 -4 -16 -10z"/>
<path d="M3378 5293 c7 -3 16 -2 19 1 4 3 -2 6 -13 5 -11 0 -14 -3 -6 -6z"/>
<path d="M4930 5276 c0 -2 7 -7 16 -10 8 -3 12 -2 9 4 -6 10 -25 14 -25 6z"/>
<path d="M4558 5203 c6 -2 9 -10 6 -15 -4 -7 -2 -8 5 -4 13 9 5 26 -12 25 -9
0 -8 -2 1 -6z"/>
<path d="M4645 5150 c3 -5 8 -10 11 -10 2 0 4 5 4 10 0 6 -5 10 -11 10 -5 0
-7 -4 -4 -10z"/>
<path d="M3078 5103 c7 -3 16 -2 19 1 4 3 -2 6 -13 5 -11 0 -14 -3 -6 -6z"/>
<path d="M4550 5100 c-9 -6 -10 -10 -3 -10 6 0 15 5 18 10 8 12 4 12 -15 0z"/>
<path d="M2510 5046 c0 -2 8 -10 18 -17 15 -13 16 -12 3 4 -13 16 -21 21 -21
13z"/>
<path d="M3270 5040 c-9 -6 -10 -10 -3 -10 6 0 15 5 18 10 8 12 4 12 -15 0z"/>
<path d="M2778 4913 c7 -3 16 -2 19 1 4 3 -2 6 -13 5 -11 0 -14 -3 -6 -6z"/>
<path d="M1707 4859 c7 -7 15 -10 18 -7 3 3 -2 9 -12 12 -14 6 -15 5 -6 -5z"/>
<path d="M1618 4843 c7 -3 16 -2 19 1 4 3 -2 6 -13 5 -11 0 -14 -3 -6 -6z"/>
<path d="M4938 4843 c7 -3 16 -2 19 1 4 3 -2 6 -13 5 -11 0 -14 -3 -6 -6z"/>
<path d="M2168 4773 c7 -3 16 -2 19 1 4 3 -2 6 -13 5 -11 0 -14 -3 -6 -6z"/>
<path d="M3708 4763 c7 -3 16 -2 19 1 4 3 -2 6 -13 5 -11 0 -14 -3 -6 -6z"/>
<path d="M5210 4766 c0 -2 7 -7 16 -10 8 -3 12 -2 9 4 -6 10 -25 14 -25 6z"/>
<path d="M3370 4700 c-9 -6 -10 -10 -3 -10 6 0 15 5 18 10 8 12 4 12 -15 0z"/>
<path d="M3195 4690 c-3 -6 1 -7 9 -4 18 7 21 14 7 14 -6 0 -13 -4 -16 -10z"/>
<path d="M5215 4620 c-3 -6 1 -7 9 -4 18 7 21 14 7 14 -6 0 -13 -4 -16 -10z"/>
<path d="M2955 4610 c-3 -6 1 -7 9 -4 18 7 21 14 7 14 -6 0 -13 -4 -16 -10z"/>
<path d="M2737 4569 c7 -7 15 -10 18 -7 3 3 -2 9 -12 12 -14 6 -15 5 -6 -5z"/>
<path d="M4375 4570 c-3 -6 1 -7 9 -4 18 7 21 14 7 14 -6 0 -13 -4 -16 -10z"/>
<path d="M2780 4496 c7 -7 13 -7 20 0 6 6 3 10 -10 10 -13 0 -16 -4 -10 -10z"/>
<path d="M4633 4445 c0 -8 4 -12 9 -9 5 3 6 10 3 15 -9 13 -12 11 -12 -6z"/>
<path d="M2818 4433 c6 -2 10 -8 8 -12 -3 -4 1 -8 9 -8 11 0 12 4 4 14 -6 7
-17 13 -23 12 -7 0 -6 -2 2 -6z"/>
<path d="M1441 4301 c-11 -7 -9 -10 8 -16 13 -4 25 -4 28 -1 4 3 -2 6 -13 7
-18 0 -18 1 1 9 13 6 15 9 5 9 -8 0 -21 -3 -29 -8z"/>
<path d="M4470 4276 c0 -2 8 -10 18 -17 15 -13 16 -12 3 4 -13 16 -21 21 -21
13z"/>
<path d="M1500 4246 c7 -7 13 -7 20 0 6 6 3 10 -10 10 -13 0 -16 -4 -10 -10z"/>
<path d="M4745 4210 c-13 -6 -15 -9 -5 -9 8 0 22 4 30 9 18 12 2 12 -25 0z"/>
<path d="M1603 4137 c0 -8 6 -14 14 -14 9 0 10 4 2 14 -6 7 -12 13 -14 13 -1
0 -2 -6 -2 -13z"/>
<path d="M5125 4130 c10 -11 20 -20 23 -20 3 0 -3 9 -13 20 -10 11 -20 20 -23
20 -3 0 3 -9 13 -20z"/>
<path d="M1900 4090 c-9 -6 -10 -10 -3 -10 6 0 15 5 18 10 8 12 4 12 -15 0z"/>
<path d="M1966 4085 c-11 -8 -15 -15 -9 -15 6 0 16 7 23 15 16 19 11 19 -14 0z"/>
<path d="M1540 4086 c0 -2 8 -10 18 -17 15 -13 16 -12 3 4 -13 16 -21 21 -21
13z"/>
<path d="M3469 4072 c-13 -15 -12 -16 3 -4 13 10 17 10 21 0 4 -9 6 -9 6 -1 2
20 -16 24 -30 5z"/>
<path d="M1748 4063 c6 -2 18 -2 25 0 6 3 1 5 -13 5 -14 0 -19 -2 -12 -5z"/>
<path d="M1903 4045 c0 -8 4 -12 9 -9 5 3 6 10 3 15 -9 13 -12 11 -12 -6z"/>
<path d="M4923 4035 c0 -8 4 -12 9 -9 5 3 6 10 3 15 -9 13 -12 11 -12 -6z"/>
<path d="M2508 4033 c7 -3 16 -2 19 1 4 3 -2 6 -13 5 -11 0 -14 -3 -6 -6z"/>
<path d="M2548 4033 c6 -2 18 -2 25 0 6 3 1 5 -13 5 -14 0 -19 -2 -12 -5z"/>
<path d="M2635 4010 c-3 -6 1 -7 9 -4 18 7 21 14 7 14 -6 0 -13 -4 -16 -10z"/>
<path d="M2495 3981 c-6 -11 13 -26 22 -17 4 3 1 6 -6 6 -7 0 -9 5 -6 10 3 6
4 10 1 10 -3 0 -7 -4 -11 -9z"/>
<path d="M3265 3980 c-16 -7 -17 -9 -3 -9 9 -1 20 4 23 9 7 11 7 11 -20 0z"/>
<path d="M2557 3959 c7 -7 15 -10 18 -7 3 3 -2 9 -12 12 -14 6 -15 5 -6 -5z"/>
<path d="M3158 3963 c6 -2 18 -2 25 0 6 3 1 5 -13 5 -14 0 -19 -2 -12 -5z"/>
<path d="M3486 3951 c-4 -5 3 -7 14 -4 23 6 26 13 6 13 -8 0 -17 -4 -20 -9z"/>
<path d="M2655 3930 c-3 -6 1 -7 9 -4 18 7 21 14 7 14 -6 0 -13 -4 -16 -10z"/>
<path d="M3697 3929 c7 -7 15 -10 18 -7 3 3 -2 9 -12 12 -14 6 -15 5 -6 -5z"/>
<path d="M5078 3933 c7 -3 16 -2 19 1 4 3 -2 6 -13 5 -11 0 -14 -3 -6 -6z"/>
<path d="M3343 3915 c0 -8 4 -12 9 -9 5 3 6 10 3 15 -9 13 -12 11 -12 -6z"/>
<path d="M3485 3920 c-3 -6 1 -7 9 -4 18 7 21 14 7 14 -6 0 -13 -4 -16 -10z"/>
<path d="M5178 3923 c7 -3 16 -2 19 1 4 3 -2 6 -13 5 -11 0 -14 -3 -6 -6z"/>
<path d="M3180 3916 c0 -2 7 -7 16 -10 8 -3 12 -2 9 4 -6 10 -25 14 -25 6z"/>
<path d="M3561 3910 c-9 -5 -4 -7 13 -7 29 0 32 2 13 10 -8 3 -20 2 -26 -3z"/>
<path d="M5089 3903 c-13 -16 -12 -17 4 -4 9 7 17 15 17 17 0 8 -8 3 -21 -13z"/>
<path d="M2748 3903 c7 -3 16 -2 19 1 4 3 -2 6 -13 5 -11 0 -14 -3 -6 -6z"/>
<path d="M3618 3903 c7 -3 16 -2 19 1 4 3 -2 6 -13 5 -11 0 -14 -3 -6 -6z"/>
<path d="M5110 3896 c0 -3 9 -10 20 -16 11 -6 20 -8 20 -6 0 3 -9 10 -20 16
-11 6 -20 8 -20 6z"/>
<path d="M5257 3879 c7 -7 15 -10 18 -7 3 3 -2 9 -12 12 -14 6 -15 5 -6 -5z"/>
<path d="M3336 3868 c3 -5 10 -6 15 -3 13 9 11 12 -6 12 -8 0 -12 -4 -9 -9z"/>
<path d="M3143 3835 c0 -7 6 -11 14 -8 7 3 13 6 13 8 0 2 -6 5 -13 8 -8 3 -14
-1 -14 -8z"/>
<path d="M3230 3829 c0 -5 5 -7 10 -4 6 3 10 8 10 11 0 2 -4 4 -10 4 -5 0 -10
-5 -10 -11z"/>
<path d="M5110 3828 c0 -4 4 -8 9 -8 6 0 12 4 15 8 3 5 -1 9 -9 9 -8 0 -15 -4
-15 -9z"/>
<path d="M3480 3816 c4 -4 16 -4 26 2 16 9 14 10 -8 9 -15 -1 -23 -6 -18 -11z"/>
<path d="M3322 3774 c10 -10 20 -16 22 -13 3 3 -5 11 -17 18 -21 13 -21 12 -5
-5z"/>
<path d="M5191 3770 c-13 -11 -19 -20 -14 -20 6 0 18 9 28 20 23 25 17 25 -14
0z"/>
<path d="M5277 3779 c7 -7 15 -10 18 -7 3 3 -2 9 -12 12 -14 6 -15 5 -6 -5z"/>
<path d="M5107 3767 c-3 -8 1 -14 8 -14 7 0 11 6 8 14 -3 7 -6 13 -8 13 -2 0
-5 -6 -8 -13z"/>
<path d="M4095 3760 c3 -5 8 -10 11 -10 2 0 4 5 4 10 0 6 -5 10 -11 10 -5 0
-7 -4 -4 -10z"/>
<path d="M3208 3753 c7 -3 16 -2 19 1 4 3 -2 6 -13 5 -11 0 -14 -3 -6 -6z"/>
<path d="M5100 3670 c-9 -6 -10 -10 -3 -10 6 0 15 5 18 10 8 12 4 12 -15 0z"/>
<path d="M5247 3629 c7 -7 15 -10 18 -7 3 3 -2 9 -12 12 -14 6 -15 5 -6 -5z"/>
<path d="M4100 3598 c0 -4 6 -8 14 -8 8 0 17 4 20 8 2 4 -4 8 -15 8 -10 0 -19
-4 -19 -8z"/>
<path d="M2309 3592 c7 -5 10 -15 7 -21 -4 -6 -2 -11 4 -11 17 0 8 33 -10 37
-12 4 -13 3 -1 -5z"/>
<path d="M5170 3560 c-8 -5 -10 -10 -5 -10 6 0 17 5 25 10 8 5 11 10 5 10 -5
0 -17 -5 -25 -10z"/>
<path d="M4125 3550 c-3 -6 1 -7 9 -4 18 7 21 14 7 14 -6 0 -13 -4 -16 -10z"/>
<path d="M2327 3543 c-3 -5 6 -9 20 -10 19 -1 22 1 12 8 -17 11 -26 11 -32 2z"/>
<path d="M2465 3540 c-16 -7 -17 -9 -3 -9 9 -1 20 4 23 9 7 11 7 11 -20 0z"/>
<path d="M4999 3523 l-24 -28 28 24 c15 14 27 26 27 28 0 8 -8 1 -31 -24z"/>
<path d="M5170 3530 c-8 -5 -10 -10 -5 -10 6 0 17 5 25 10 8 5 11 10 5 10 -5
0 -17 -5 -25 -10z"/>
<path d="M2484 3504 c-18 -14 -18 -15 4 -4 12 6 22 13 22 15 0 8 -5 6 -26 -11z"/>
<path d="M2420 3500 c-12 -7 -10 -9 7 -7 12 0 19 5 17 9 -6 10 -6 10 -24 -2z"/>
<path d="M4210 3500 c-9 -6 -10 -10 -3 -10 6 0 15 5 18 10 8 12 4 12 -15 0z"/>
<path d="M4210 3470 c0 -5 5 -10 11 -10 5 0 7 5 4 10 -3 6 -8 10 -11 10 -2 0
-4 -4 -4 -10z"/>
<path d="M4998 3463 c6 -2 18 -2 25 0 6 3 1 5 -13 5 -14 0 -19 -2 -12 -5z"/>
<path d="M5099 3448 c7 -10 19 -14 28 -11 12 5 14 3 8 -7 -5 -9 -4 -11 4 -6
15 9 3 29 -14 22 -7 -2 -19 1 -26 7 -11 10 -11 9 0 -5z"/>
<path d="M4217 3439 c7 -7 15 -10 18 -7 3 3 -2 9 -12 12 -14 6 -15 5 -6 -5z"/>
<path d="M4920 3446 c0 -2 7 -7 16 -10 8 -3 12 -2 9 4 -6 10 -25 14 -25 6z"/>
<path d="M4980 3430 c0 -5 5 -10 11 -10 5 0 7 5 4 10 -3 6 -8 10 -11 10 -2 0
-4 -4 -4 -10z"/>
<path d="M4440 3412 c0 -4 10 -9 22 -9 18 -2 20 0 8 7 -18 12 -30 13 -30 2z"/>
<path d="M4990 3406 c0 -2 7 -7 16 -10 8 -3 12 -2 9 4 -6 10 -25 14 -25 6z"/>
<path d="M4400 3390 c-9 -6 -10 -10 -3 -10 6 0 15 5 18 10 8 12 4 12 -15 0z"/>
<path d="M4630 3386 c4 -4 16 -4 26 2 16 9 14 10 -8 9 -15 -1 -23 -6 -18 -11z"/>
<path d="M4740 3396 c0 -2 8 -10 18 -17 15 -13 16 -12 3 4 -13 16 -21 21 -21
13z"/>
<path d="M4273 3383 c9 -2 23 -2 30 0 6 3 -1 5 -18 5 -16 0 -22 -2 -12 -5z"/>
<path d="M4336 3369 c3 -5 0 -9 -7 -9 -7 0 -10 -2 -7 -5 3 -3 16 -2 28 3 l24
9 -22 5 c-12 4 -20 2 -16 -3z"/>
<path d="M4670 3370 c-8 -5 -10 -10 -5 -10 6 0 17 5 25 10 8 5 11 10 5 10 -5
0 -17 -5 -25 -10z"/>
<path d="M4986 3368 c3 -5 10 -6 15 -3 13 9 11 12 -6 12 -8 0 -12 -4 -9 -9z"/>
<path d="M4400 3360 c8 -5 22 -9 30 -9 10 0 8 3 -5 9 -27 12 -43 12 -25 0z"/>
<path d="M4919 3343 c-13 -16 -12 -17 4 -4 16 13 21 21 13 21 -2 0 -10 -8 -17
-17z"/>
<path d="M4956 3337 c3 -10 9 -15 12 -12 3 3 0 11 -7 18 -10 9 -11 8 -5 -6z"/>
<path d="M4757 3319 c7 -7 15 -10 18 -7 3 3 -2 9 -12 12 -14 6 -15 5 -6 -5z"/>
<path d="M4367 3309 c7 -7 15 -10 18 -7 3 3 -2 9 -12 12 -14 6 -15 5 -6 -5z"/>
<path d="M4467 3279 c7 -7 15 -10 18 -7 3 3 -2 9 -12 12 -14 6 -15 5 -6 -5z"/>
<path d="M4525 3270 c-3 -6 1 -7 9 -4 18 7 21 14 7 14 -6 0 -13 -4 -16 -10z"/>
<path d="M2590 6350 c0 -5 5 -10 11 -10 5 0 7 5 4 10 -3 6 -8 10 -11 10 -2 0
-4 -4 -4 -10z"/>
<path d="M2625 6270 c-3 -5 -2 -18 4 -27 7 -14 9 -12 8 10 -2 30 -3 31 -12 17z"/>
<path d="M2600 6146 c0 -8 -3 -23 -6 -33 -5 -12 -4 -15 3 -8 16 15 26 55 14
55 -6 0 -11 -6 -11 -14z"/>
<path d="M5485 6033 c18 -42 25 -52 25 -34 0 14 -28 71 -35 71 -3 0 2 -17 10
-37z"/>
<path d="M2551 5965 c1 -40 1 -40 11 -12 7 21 7 32 -1 40 -8 8 -11 0 -10 -28z"/>
<path d="M5550 5885 c15 -40 31 -67 36 -62 7 7 -22 73 -35 81 -8 5 -8 0 -1
-19z"/>
<path d="M2500 5815 c0 -15 4 -24 10 -20 6 3 10 12 10 20 0 8 -4 17 -10 20 -6
4 -10 -5 -10 -20z"/>
<path d="M5596 5732 c-3 -5 1 -9 9 -9 8 0 12 4 9 9 -3 4 -7 8 -9 8 -2 0 -6 -4
-9 -8z"/>
<path d="M5600 5688 c0 -13 5 -30 10 -38 7 -11 10 -5 10 23 0 20 -4 37 -10 37
-5 0 -10 -10 -10 -22z"/>
<path d="M2010 5705 c0 -5 9 -23 20 -40 11 -16 20 -25 20 -20 0 6 -9 24 -20
40 -11 17 -20 26 -20 20z"/>
<path d="M2116 5542 c-3 -6 1 -28 10 -49 20 -48 29 -31 11 22 -8 23 -16 34
-21 27z"/>
<path d="M6230 5530 c-24 -8 -23 -8 8 -9 17 -1 32 4 32 9 0 11 -5 11 -40 0z"/>
<path d="M5597 5487 c-4 -10 -7 -28 -7 -40 1 -20 2 -20 11 -4 6 10 9 28 7 40
-3 20 -4 20 -11 4z"/>
<path d="M6360 5495 c7 -8 17 -15 22 -15 6 0 5 7 -2 15 -7 8 -17 15 -22 15 -6
0 -5 -7 2 -15z"/>
<path d="M6094 5468 l-19 -23 23 19 c21 18 27 26 19 26 -2 0 -12 -10 -23 -22z"/>
<path d="M6459 5412 c12 -22 41 -48 41 -36 -1 11 -36 54 -44 54 -4 0 -2 -8 3
-18z"/>
<path d="M2200 5333 c0 -11 9 -32 21 -47 11 -14 17 -31 13 -38 -4 -7 -4 -10 1
-6 4 4 14 3 22 -3 20 -17 16 -5 -18 53 -38 65 -39 66 -39 41z"/>
<path d="M6016 5335 c-3 -9 -6 -22 -5 -28 0 -7 5 -1 10 12 5 13 8 26 5 28 -2
2 -6 -3 -10 -12z"/>
<path d="M5517 5270 c-29 -45 -19 -56 11 -12 29 42 34 52 24 52 -4 0 -20 -18
-35 -40z"/>
<path d="M5519 5223 c-13 -16 -12 -17 4 -4 9 7 17 15 17 17 0 8 -8 3 -21 -13z"/>
<path d="M5970 5171 c-12 -24 -13 -34 -1 -27 9 6 22 46 15 46 -2 0 -8 -9 -14
-19z"/>
<path d="M2319 5103 c11 -22 61 -69 61 -59 0 12 -52 76 -62 76 -5 0 -5 -7 1
-17z"/>
<path d="M5362 5110 c-18 -16 -29 -30 -25 -30 13 0 80 59 68 60 -6 0 -25 -13
-43 -30z"/>
<path d="M5171 5014 c-19 -8 -32 -17 -28 -20 3 -3 22 4 44 15 44 23 34 27 -16
5z"/>
<path d="M5892 4956 c-12 -25 -20 -46 -18 -46 8 0 47 73 44 82 -2 5 -13 -11
-26 -36z"/>
<path d="M2500 4926 c0 -8 43 -47 65 -58 16 -8 18 -8 8 2 -6 7 -9 20 -6 29 4
12 3 13 -5 2 -7 -9 -12 -10 -16 -2 -8 12 -46 35 -46 27z"/>
<path d="M5775 4780 c-16 -16 -24 -30 -18 -30 10 0 34 24 47 48 12 20 2 14
-29 -18z"/>
<path d="M2700 4800 c0 -4 28 -14 61 -23 48 -12 59 -13 48 -2 -16 15 -109 36
-109 25z"/>
<path d="M5998 4783 c6 -2 18 -2 25 0 6 3 1 5 -13 5 -14 0 -19 -2 -12 -5z"/>
<path d="M5905 4750 c-3 -5 -1 -10 4 -10 6 0 11 5 11 10 0 6 -2 10 -4 10 -3 0
-8 -4 -11 -10z"/>
<path d="M6348 4673 c7 -3 16 -2 19 1 4 3 -2 6 -13 5 -11 0 -14 -3 -6 -6z"/>
<path d="M5669 4413 c-12 -16 -12 -17 2 -6 9 7 20 9 24 5 5 -4 5 -1 1 6 -9 16
-11 15 -27 -5z"/>
<path d="M6368 4418 c5 -5 16 -8 23 -6 8 3 3 7 -10 11 -17 4 -21 3 -13 -5z"/>
<path d="M5620 4376 c0 -2 8 -10 18 -17 15 -13 16 -12 3 4 -13 16 -21 21 -21
13z"/>
<path d="M6380 4350 c-9 -6 -10 -10 -3 -10 6 0 15 5 18 10 8 12 4 12 -15 0z"/>
<path d="M5478 4163 c6 -2 18 -2 25 0 6 3 1 5 -13 5 -14 0 -19 -2 -12 -5z"/>
<path d="M6280 4162 c0 -5 7 -9 15 -9 8 0 12 4 9 9 -3 4 -9 8 -15 8 -5 0 -9
-4 -9 -8z"/>
<path d="M5485 4120 c-3 -6 1 -7 9 -4 18 7 21 14 7 14 -6 0 -13 -4 -16 -10z"/>
<path d="M6060 4090 c8 -5 20 -10 25 -10 6 0 3 5 -5 10 -8 5 -19 10 -25 10 -5
0 -3 -5 5 -10z"/>
<path d="M5380 4050 c-9 -6 -10 -10 -3 -10 6 0 15 5 18 10 8 12 4 12 -15 0z"/>
<path d="M2968 4763 c12 -2 32 -2 45 0 12 2 2 4 -23 4 -25 0 -35 -2 -22 -4z"/>
<path d="M5630 4655 c-7 -9 -19 -14 -26 -11 -8 3 -13 0 -11 -7 1 -7 -3 -11 -8
-10 -6 1 -11 -7 -11 -17 0 -19 9 -17 39 9 19 16 42 51 34 51 -3 0 -10 -7 -17
-15z"/>
<path d="M5620 4605 c-11 -13 -10 -14 4 -9 9 3 16 10 16 15 0 13 -6 11 -20 -6z"/>
<path d="M1658 4643 c-27 -32 -31 -49 -4 -19 14 16 26 31 26 33 0 7 -8 2 -22
-14z"/>
<path d="M5383 4522 c-48 -20 -63 -32 -40 -32 22 0 87 31 87 42 0 10 4 11 -47
-10z"/>
<path d="M5311 4506 c-9 -11 -9 -16 1 -22 7 -4 10 -4 6 1 -4 4 -3 14 3 22 6 7
9 13 6 13 -2 0 -10 -6 -16 -14z"/>
<path d="M4835 4490 c17 -4 39 -8 50 -9 16 -1 17 1 5 9 -8 5 -31 9 -50 9 l-35
-1 30 -8z"/>
<path d="M2230 4495 c18 -24 38 -42 65 -57 l20 -11 -20 23 c-11 12 -33 32 -50
43 -28 20 -29 20 -15 2z"/>
<path d="M3521 4456 c-9 -11 -9 -16 0 -22 7 -4 9 -3 5 4 -3 5 0 12 6 15 7 2
10 7 7 11 -3 4 -12 0 -18 -8z"/>
<path d="M5085 4460 c45 -12 97 -12 90 0 -3 6 -32 9 -63 9 -47 -1 -52 -3 -27
-9z"/>
<path d="M2428 4343 c6 -3 9 -10 6 -15 -4 -6 -2 -8 4 -4 6 3 27 -3 47 -15 29
-18 39 -19 48 -9 7 7 7 10 1 7 -5 -3 -23 2 -38 12 -17 11 -23 20 -16 23 7 2
-5 4 -26 5 -21 0 -33 -2 -26 -4z"/>
<path d="M3243 4290 c-35 -16 -63 -31 -63 -34 0 -12 95 25 114 44 25 25 25 25
-51 -10z"/>
<path d="M4276 4272 c-3 -5 1 -9 9 -9 8 0 12 4 9 9 -3 4 -7 8 -9 8 -2 0 -6 -4
-9 -8z"/>
<path d="M4300 4242 c0 -5 7 -15 15 -22 8 -7 13 -16 10 -20 -3 -5 0 -12 6 -16
8 -4 9 -3 5 4 -9 16 7 15 22 0 9 -9 15 -9 25 1 8 10 8 12 0 7 -6 -3 -14 -2
-18 3 -10 17 -65 53 -65 43z"/>
<path d="M2700 4240 c33 -11 70 -12 70 -2 0 5 -21 9 -47 9 -38 1 -43 0 -23 -7z"/>
<path d="M2998 4233 c7 -3 16 -2 19 1 4 3 -2 6 -13 5 -11 0 -14 -3 -6 -6z"/>
<path d="M3035 4230 c-3 -5 -23 -10 -43 -11 -20 0 -46 -5 -57 -10 -14 -7 -4
-8 34 -4 30 2 62 11 70 20 8 8 12 15 9 15 -4 0 -10 -4 -13 -10z"/>
<path d="M4509 4093 c49 -39 70 -47 68 -23 -1 10 -5 17 -9 14 -4 -3 -27 5 -50
16 l-43 21 34 -28z"/>
<path d="M3923 4016 c-18 -24 -33 -47 -33 -51 0 -14 51 38 66 68 22 41 3 32
-33 -17z"/>
<path d="M4696 4001 c-4 -5 3 -7 14 -4 23 6 26 13 6 13 -8 0 -17 -4 -20 -9z"/>
<path d="M4710 3986 c0 -4 107 -56 114 -56 9 0 -1 31 -14 43 -10 9 -11 9 -6 0
9 -16 7 -16 -44 2 -46 16 -50 17 -50 11z"/>
<path d="M4924 3848 c-4 -7 -3 -10 1 -5 5 4 21 -5 37 -20 15 -15 28 -22 28
-17 0 11 -42 54 -53 54 -3 0 -9 -6 -13 -12z"/>
<path d="M3745 3840 c-22 -16 -44 -28 -50 -26 -13 4 -45 -12 -45 -23 0 -12 39
-7 65 7 18 9 84 73 74 71 -2 0 -22 -14 -44 -29z"/>
<path d="M3468 3710 c-26 -9 -51 -20 -55 -25 -5 -4 0 -5 10 -2 10 4 29 7 42 7
12 0 33 9 46 20 28 23 20 23 -43 0z"/>
<path d="M4986 3654 c-10 -38 0 -41 12 -5 6 17 7 31 3 31 -5 0 -12 -12 -15
-26z"/>
<path d="M3226 3672 c-2 -4 10 -9 29 -10 18 -2 36 2 40 8 4 6 -7 10 -29 10
-19 0 -37 -4 -40 -8z"/>
<path d="M288 3033 c6 -2 18 -2 25 0 6 3 1 5 -13 5 -14 0 -19 -2 -12 -5z"/>
<path d="M620 3031 c0 -6 4 -13 10 -16 6 -3 7 1 4 9 -7 18 -14 21 -14 7z"/>
<path d="M728 3033 c12 -2 30 -2 40 0 9 3 -1 5 -23 4 -22 0 -30 -2 -17 -4z"/>
<path d="M1058 3013 c7 -3 16 -2 19 1 4 3 -2 6 -13 5 -11 0 -14 -3 -6 -6z"/>
<path d="M877 2989 c7 -7 15 -10 18 -7 3 3 -2 9 -12 12 -14 6 -15 5 -6 -5z"/>
<path d="M785 2970 c-3 -6 1 -7 9 -4 18 7 21 14 7 14 -6 0 -13 -4 -16 -10z"/>
<path d="M555 2931 c-3 -5 -2 -12 3 -15 5 -3 9 1 9 9 0 17 -3 19 -12 6z"/>
<path d="M660 2783 c0 -87 -1 -338 -1 -558 -1 -220 -1 -408 0 -418 1 -16 11
-18 94 -16 212 5 327 47 442 163 39 39 74 69 78 68 5 -1 6 2 2 7 -3 6 4 29 15
51 79 155 78 400 -1 569 -92 199 -260 291 -531 291 l-98 0 0 -157z"/>
<path d="M1077 2929 c7 -7 15 -10 18 -7 3 3 -2 9 -12 12 -14 6 -15 5 -6 -5z"/>
<path d="M598 2913 c7 -3 16 -2 19 1 4 3 -2 6 -13 5 -11 0 -14 -3 -6 -6z"/>
<path d="M1370 2870 c-11 -7 -11 -10 -2 -10 7 0 10 -5 6 -12 -4 -7 -3 -8 5 -4
6 4 9 11 6 16 -3 4 1 11 7 13 7 3 9 6 3 6 -5 0 -17 -4 -25 -9z"/>
<path d="M1225 2800 c-13 -5 -14 -9 -5 -9 8 0 24 4 35 9 13 5 14 9 5 9 -8 0
-24 -4 -35 -9z"/>
<path d="M586 2753 c-6 -14 -5 -15 5 -6 7 7 10 15 7 18 -3 3 -9 -2 -12 -12z"/>
<path d="M437 2749 c7 -7 15 -10 18 -7 3 3 -2 9 -12 12 -14 6 -15 5 -6 -5z"/>
<path d="M1298 2703 c7 -3 16 -2 19 1 4 3 -2 6 -13 5 -11 0 -14 -3 -6 -6z"/>
<path d="M605 2561 c-3 -5 -2 -12 3 -15 5 -3 9 1 9 9 0 17 -3 19 -12 6z"/>
<path d="M470 2556 c0 -2 7 -7 16 -10 8 -3 12 -2 9 4 -6 10 -25 14 -25 6z"/>
<path d="M1400 2510 c-8 -5 -10 -10 -5 -10 6 0 17 5 25 10 8 5 11 10 5 10 -5
0 -17 -5 -25 -10z"/>
<path d="M606 2497 c3 -10 9 -15 12 -12 3 3 0 11 -7 18 -10 9 -11 8 -5 -6z"/>
<path d="M1446 2492 c-3 -5 1 -9 9 -9 8 0 12 4 9 9 -3 4 -7 8 -9 8 -2 0 -6 -4
-9 -8z"/>
<path d="M490 2486 c0 -2 7 -7 16 -10 8 -3 12 -2 9 4 -6 10 -25 14 -25 6z"/>
<path d="M1575 2450 c-3 -6 1 -7 9 -4 18 7 21 14 7 14 -6 0 -13 -4 -16 -10z"/>
<path d="M480 2400 c-12 -7 -10 -9 7 -7 12 0 19 5 17 9 -6 10 -6 10 -24 -2z"/>
<path d="M1482 2391 c-11 -7 -11 -9 0 -14 9 -3 15 1 15 9 0 8 -1 14 -1 14 -1
0 -7 -4 -14 -9z"/>
<path d="M578 2263 c7 -3 16 -2 19 1 4 3 -2 6 -13 5 -11 0 -14 -3 -6 -6z"/>
<path d="M1490 2266 c0 -2 8 -10 18 -17 15 -13 16 -12 3 4 -13 16 -21 21 -21
13z"/>
<path d="M1555 2260 c-3 -6 1 -7 9 -4 18 7 21 14 7 14 -6 0 -13 -4 -16 -10z"/>
<path d="M594 2244 c-18 -14 -18 -15 4 -4 12 6 22 13 22 15 0 8 -5 6 -26 -11z"/>
<path d="M1499 2193 c-13 -16 -12 -17 4 -4 9 7 17 15 17 17 0 8 -8 3 -21 -13z"/>
<path d="M390 2196 c0 -2 8 -10 18 -17 15 -13 16 -12 3 4 -13 16 -21 21 -21
13z"/>
<path d="M1520 2156 c0 -2 7 -7 16 -10 8 -3 12 -2 9 4 -6 10 -25 14 -25 6z"/>
<path d="M1336 2128 c3 -4 11 -5 19 -1 21 7 19 12 -4 10 -11 0 -18 -5 -15 -9z"/>
<path d="M536 2112 c-3 -5 1 -9 9 -9 8 0 12 4 9 9 -3 4 -7 8 -9 8 -2 0 -6 -4
-9 -8z"/>
<path d="M1345 2090 c-3 -6 1 -7 9 -4 18 7 21 14 7 14 -6 0 -13 -4 -16 -10z"/>
<path d="M1414 2066 c11 -9 24 -16 30 -16 12 0 7 5 -24 19 -24 11 -24 11 -6
-3z"/>
<path d="M1328 2063 c7 -3 16 -2 19 1 4 3 -2 6 -13 5 -11 0 -14 -3 -6 -6z"/>
<path d="M1516 2037 c-16 -12 -16 -14 -3 -14 9 0 18 6 21 14 3 7 4 13 3 13 -2
0 -11 -6 -21 -13z"/>
<path d="M1408 2003 c6 -2 18 -2 25 0 6 3 1 5 -13 5 -14 0 -19 -2 -12 -5z"/>
<path d="M579 1988 c-11 -8 -11 -9 2 -5 9 3 22 0 28 -6 6 -6 13 -9 15 -6 11
11 -31 27 -45 17z"/>
<path d="M1318 1993 c7 -3 16 -2 19 1 4 3 -2 6 -13 5 -11 0 -14 -3 -6 -6z"/>
<path d="M498 1973 c7 -3 16 -2 19 1 4 3 -2 6 -13 5 -11 0 -14 -3 -6 -6z"/>
<path d="M1305 1961 c-6 -11 13 -26 22 -17 4 3 0 6 -8 6 -11 0 -11 2 1 10 9 6
10 10 3 10 -6 0 -14 -4 -18 -9z"/>
<path d="M525 1950 c-3 -6 1 -7 9 -4 18 7 21 14 7 14 -6 0 -13 -4 -16 -10z"/>
<path d="M428 1923 c7 -3 16 -2 19 1 4 3 -2 6 -13 5 -11 0 -14 -3 -6 -6z"/>
<path d="M1273 1915 c0 -8 4 -12 9 -9 5 3 6 10 3 15 -9 13 -12 11 -12 -6z"/>
<path d="M1400 1926 c0 -2 7 -7 16 -10 8 -3 12 -2 9 4 -6 10 -25 14 -25 6z"/>
<path d="M430 1900 c-12 -7 -10 -9 7 -7 12 0 19 5 17 9 -6 10 -6 10 -24 -2z"/>
<path d="M597 1879 c7 -7 15 -10 18 -7 3 3 -2 9 -12 12 -14 6 -15 5 -6 -5z"/>
<path d="M1135 1880 c-3 -6 1 -7 9 -4 18 7 21 14 7 14 -6 0 -13 -4 -16 -10z"/>
<path d="M435 1870 c-3 -6 1 -7 9 -4 18 7 21 14 7 14 -6 0 -13 -4 -16 -10z"/>
<path d="M621 1856 c-9 -10 -7 -17 6 -27 16 -12 17 -12 6 2 -10 12 -10 18 -1
27 7 7 9 12 6 12 -3 0 -11 -6 -17 -14z"/>
<path d="M1340 1866 c0 -2 7 -7 16 -10 8 -3 12 -2 9 4 -6 10 -25 14 -25 6z"/>
<path d="M1212 1847 c-8 -10 -6 -13 11 -14 15 -2 18 0 8 6 -11 7 -11 9 0 14 8
3 9 6 3 6 -6 1 -16 -5 -22 -12z"/>
<path d="M1117 1829 c7 -7 15 -10 18 -7 3 3 -2 9 -12 12 -14 6 -15 5 -6 -5z"/>
<path d="M429 1807 c11 -13 17 -15 28 -6 7 7 11 15 7 18 -4 3 -9 0 -11 -7 -4
-10 -8 -10 -21 0 -15 12 -16 11 -3 -5z"/>
<path d="M1015 1810 c3 -5 8 -10 11 -10 2 0 4 5 4 10 0 6 -5 10 -11 10 -5 0
-7 -4 -4 -10z"/>
<path d="M394 1796 c1 -8 5 -18 8 -22 4 -3 5 1 4 10 -1 8 -5 18 -8 22 -4 3 -5
-1 -4 -10z"/>
<path d="M476 1802 c-3 -5 1 -9 9 -9 8 0 12 4 9 9 -3 4 -7 8 -9 8 -2 0 -6 -4
-9 -8z"/>
<path d="M678 1773 c12 -2 32 -2 45 0 12 2 2 4 -23 4 -25 0 -35 -2 -22 -4z"/>
<path d="M798 1773 c6 -2 18 -2 25 0 6 3 1 5 -13 5 -14 0 -19 -2 -12 -5z"/>
<path d="M598 1753 c6 -2 18 -2 25 0 6 3 1 5 -13 5 -14 0 -19 -2 -12 -5z"/>
<path d="M1148 1748 c5 -5 16 -8 23 -6 8 3 3 7 -10 11 -17 4 -21 3 -13 -5z"/>
<path d="M680 1746 c0 -2 7 -6 15 -10 8 -3 15 -1 15 4 0 6 -7 10 -15 10 -8 0
-15 -2 -15 -4z"/>
<path d="M794 1738 c9 -5 23 -5 32 0 12 6 7 9 -16 9 -23 0 -28 -3 -16 -9z"/>
<path d="M370 1720 c-13 -8 -12 -10 3 -10 9 0 17 5 17 10 0 12 -1 12 -20 0z"/>
<path d="M505 1720 c3 -5 11 -10 16 -10 6 0 7 5 4 10 -3 6 -11 10 -16 10 -6 0
-7 -4 -4 -10z"/>
<path d="M842 1721 c-11 -6 -10 -10 4 -15 9 -3 19 -4 22 -1 3 3 0 5 -7 5 -7 0
-9 5 -6 10 7 12 4 12 -13 1z"/>
<path d="M958 1723 c7 -3 16 -2 19 1 4 3 -2 6 -13 5 -11 0 -14 -3 -6 -6z"/>
<path d="M470 1710 c8 -5 20 -10 25 -10 6 0 3 5 -5 10 -8 5 -19 10 -25 10 -5
0 -3 -5 5 -10z"/>
<path d="M630 1700 c-8 -5 -10 -10 -5 -10 6 0 17 5 25 10 8 5 11 10 5 10 -5 0
-17 -5 -25 -10z"/>
<path d="M288 1693 c7 -3 16 -2 19 1 4 3 -2 6 -13 5 -11 0 -14 -3 -6 -6z"/>
<path d="M768 1693 c6 -2 18 -2 25 0 6 3 1 5 -13 5 -14 0 -19 -2 -12 -5z"/>
<path d="M1855 3030 c3 -5 11 -10 16 -10 6 0 7 5 4 10 -3 6 -11 10 -16 10 -6
0 -7 -4 -4 -10z"/>
<path d="M1948 3033 c7 -3 16 -2 19 1 4 3 -2 6 -13 5 -11 0 -14 -3 -6 -6z"/>
<path d="M2088 3033 c7 -3 16 -2 19 1 4 3 -2 6 -13 5 -11 0 -14 -3 -6 -6z"/>
<path d="M2468 3033 c7 -3 16 -2 19 1 4 3 -2 6 -13 5 -11 0 -14 -3 -6 -6z"/>
<path d="M2648 3033 c7 -3 16 -2 19 1 4 3 -2 6 -13 5 -11 0 -14 -3 -6 -6z"/>
<path d="M2690 3036 c0 -2 7 -6 15 -10 8 -3 15 -1 15 4 0 6 -7 10 -15 10 -8 0
-15 -2 -15 -4z"/>
<path d="M2293 3005 c0 -8 4 -12 9 -9 5 3 6 10 3 15 -9 13 -12 11 -12 -6z"/>
<path d="M2028 2973 c7 -3 16 -2 19 1 4 3 -2 6 -13 5 -11 0 -14 -3 -6 -6z"/>
<path d="M2772 2904 c10 -10 20 -16 22 -13 3 3 -5 11 -17 18 -21 13 -21 12 -5
-5z"/>
<path d="M2176 2902 c-3 -5 1 -9 9 -9 8 0 15 4 15 9 0 4 -4 8 -9 8 -6 0 -12
-4 -15 -8z"/>
<path d="M2745 2840 c10 -11 20 -20 23 -20 3 0 -3 9 -13 20 -10 11 -20 20 -23
20 -3 0 3 -9 13 -20z"/>
<path d="M2780 2791 c0 -10 19 -25 25 -20 1 2 -3 10 -11 17 -8 7 -14 8 -14 3z"/>
<path d="M2090 2586 c0 -2 7 -7 16 -10 8 -3 12 -2 9 4 -6 10 -25 14 -25 6z"/>
<path d="M2083 2525 c0 -8 4 -12 9 -9 5 3 6 10 3 15 -9 13 -12 11 -12 -6z"/>
<path d="M1964 2382 c3 -5 0 -13 -6 -15 -9 -4 -10 -6 -1 -6 17 -1 25 16 12 25
-7 4 -9 3 -5 -4z"/>
<path d="M1993 2328 c-11 -19 -13 -39 -2 -32 5 3 7 9 4 14 -3 5 3 13 12 19 10
6 13 11 6 11 -6 0 -15 -6 -20 -12z"/>
<path d="M2010 2272 c0 -6 9 -12 20 -15 11 -3 20 -3 20 -1 0 2 -9 8 -20 14
-11 6 -20 7 -20 2z"/>
<path d="M2048 2233 c7 -3 16 -2 19 1 4 3 -2 6 -13 5 -11 0 -14 -3 -6 -6z"/>
<path d="M1980 2120 c0 -5 5 -10 11 -10 5 0 7 5 4 10 -3 6 -8 10 -11 10 -2 0
-4 -4 -4 -10z"/>
<path d="M2058 2033 c7 -3 16 -2 19 1 4 3 -2 6 -13 5 -11 0 -14 -3 -6 -6z"/>
<path d="M2140 2010 c0 -5 5 -10 11 -10 5 0 7 5 4 10 -3 6 -8 10 -11 10 -2 0
-4 -4 -4 -10z"/>
<path d="M2858 1993 c7 -3 16 -2 19 1 4 3 -2 6 -13 5 -11 0 -14 -3 -6 -6z"/>
<path d="M2000 1970 c-9 -6 -10 -10 -3 -10 6 0 15 5 18 10 8 12 4 12 -15 0z"/>
<path d="M2060 1960 c-9 -6 -10 -10 -3 -10 6 0 15 5 18 10 8 12 4 12 -15 0z"/>
<path d="M2147 1949 c7 -7 15 -10 18 -7 3 3 -2 9 -12 12 -14 6 -15 5 -6 -5z"/>
<path d="M2015 1941 c-6 -11 13 -26 22 -17 4 3 0 6 -8 6 -11 0 -11 2 1 10 9 6
10 10 3 10 -6 0 -14 -4 -18 -9z"/>
<path d="M2143 1915 c0 -8 4 -15 9 -15 4 0 8 4 8 9 0 6 -4 12 -8 15 -5 3 -9
-1 -9 -9z"/>
<path d="M2765 1878 l-40 -43 43 40 c39 36 47 45 39 45 -2 0 -21 -19 -42 -42z"/>
<path d="M2845 1910 c-3 -6 1 -7 9 -4 18 7 21 14 7 14 -6 0 -13 -4 -16 -10z"/>
<path d="M2020 1890 c-9 -6 -10 -10 -3 -10 6 0 15 5 18 10 8 12 4 12 -15 0z"/>
<path d="M2161 1887 c2 -1 13 -9 24 -17 19 -14 19 -14 6 3 -7 9 -18 17 -24 17
-6 0 -8 -1 -6 -3z"/>
<path d="M2016 1862 c-3 -5 1 -9 9 -9 8 0 12 4 9 9 -3 4 -7 8 -9 8 -2 0 -6 -4
-9 -8z"/>
<path d="M2108 1863 c7 -3 16 -2 19 1 4 3 -2 6 -13 5 -11 0 -14 -3 -6 -6z"/>
<path d="M2685 1820 c-16 -7 -17 -9 -3 -9 9 -1 20 4 23 9 7 11 7 11 -20 0z"/>
<path d="M2075 1800 c-4 -6 -11 -7 -17 -4 -7 4 -8 2 -4 -5 6 -9 11 -9 22 0 14
11 18 19 10 19 -3 0 -8 -5 -11 -10z"/>
<path d="M2110 1796 c0 -2 8 -10 18 -17 15 -13 16 -12 3 4 -13 16 -21 21 -21
13z"/>
<path d="M2155 1791 c-3 -5 -2 -12 3 -15 5 -3 9 1 9 9 0 17 -3 19 -12 6z"/>
<path d="M2618 1793 c7 -3 16 -2 19 1 4 3 -2 6 -13 5 -11 0 -14 -3 -6 -6z"/>
<path d="M1930 1770 c-6 -11 -8 -20 -6 -20 3 0 10 9 16 20 6 11 8 20 6 20 -3
0 -10 -9 -16 -20z"/>
<path d="M2358 1773 c7 -3 16 -2 19 1 4 3 -2 6 -13 5 -11 0 -14 -3 -6 -6z"/>
<path d="M2503 1773 c9 -2 25 -2 35 0 9 3 1 5 -18 5 -19 0 -27 -2 -17 -5z"/>
<path d="M2810 1770 c-9 -6 -10 -10 -3 -10 6 0 15 5 18 10 8 12 4 12 -15 0z"/>
<path d="M2195 1760 c-3 -6 1 -7 9 -4 18 7 21 14 7 14 -6 0 -13 -4 -16 -10z"/>
<path d="M2707 1759 c7 -7 15 -10 18 -7 3 3 -2 9 -12 12 -14 6 -15 5 -6 -5z"/>
<path d="M2645 1740 c-3 -6 1 -7 9 -4 18 7 21 14 7 14 -6 0 -13 -4 -16 -10z"/>
<path d="M2331 1710 c-13 -11 -19 -20 -14 -20 6 0 18 9 28 20 23 25 17 25 -14
0z"/>
<path d="M2461 1726 c2 -2 15 -9 29 -15 24 -11 24 -11 6 3 -16 13 -49 24 -35
12z"/>
<path d="M1880 1706 c0 -2 7 -7 16 -10 8 -3 12 -2 9 4 -6 10 -25 14 -25 6z"/>
<path d="M2240 1700 c-8 -5 -10 -10 -5 -10 6 0 17 5 25 10 8 5 11 10 5 10 -5
0 -17 -5 -25 -10z"/>
<path d="M2993 3033 c9 -2 23 -2 30 0 6 3 -1 5 -18 5 -16 0 -22 -2 -12 -5z"/>
<path d="M3358 2743 c7 -3 16 -2 19 1 4 3 -2 6 -13 5 -11 0 -14 -3 -6 -6z"/>
<path d="M4298 2273 c7 -3 16 -2 19 1 4 3 -2 6 -13 5 -11 0 -14 -3 -6 -6z"/>
<path d="M4575 2101 c-3 -5 0 -13 6 -17 7 -4 9 -3 5 4 -3 5 0 13 6 15 9 4 10
6 1 6 -6 1 -14 -3 -18 -8z"/>
<path d="M4215 2060 c-3 -5 -1 -10 4 -10 6 0 11 5 11 10 0 6 -2 10 -4 10 -3 0
-8 -4 -11 -10z"/>
<path d="M3420 2046 c0 -2 7 -7 16 -10 8 -3 12 -2 9 4 -6 10 -25 14 -25 6z"/>
<path d="M4320 2010 c0 -5 7 -7 15 -4 8 4 15 8 15 10 0 2 -7 4 -15 4 -8 0 -15
-4 -15 -10z"/>
<path d="M4365 2010 c-3 -6 1 -7 9 -4 18 7 21 14 7 14 -6 0 -13 -4 -16 -10z"/>
<path d="M4495 1980 c3 -5 8 -10 11 -10 2 0 4 5 4 10 0 6 -5 10 -11 10 -5 0
-7 -4 -4 -10z"/>
<path d="M4480 1948 c0 -4 4 -8 9 -8 6 0 12 4 15 8 3 5 -1 9 -9 9 -8 0 -15 -4
-15 -9z"/>
<path d="M4295 1901 c-3 -5 0 -13 6 -17 7 -4 9 -3 5 4 -3 5 0 13 6 15 9 4 10
6 1 6 -6 1 -14 -3 -18 -8z"/>
<path d="M3478 1893 c7 -3 16 -2 19 1 4 3 -2 6 -13 5 -11 0 -14 -3 -6 -6z"/>
<path d="M3540 1870 c-9 -6 -10 -10 -3 -10 6 0 15 5 18 10 8 12 4 12 -15 0z"/>
<path d="M3586 1843 c-6 -14 -5 -15 5 -6 7 7 10 15 7 18 -3 3 -9 -2 -12 -12z"/>
<path d="M4360 1830 c-9 -6 -10 -10 -3 -10 6 0 15 5 18 10 8 12 4 12 -15 0z"/>
<path d="M3625 1791 c-6 -11 13 -26 22 -17 4 3 1 6 -6 6 -7 0 -9 5 -6 10 3 6
4 10 1 10 -3 0 -7 -4 -11 -9z"/>
<path d="M3600 1766 c0 -2 7 -7 16 -10 8 -3 12 -2 9 4 -6 10 -25 14 -25 6z"/>
<path d="M3650 1716 c0 -2 7 -7 16 -10 8 -3 12 -2 9 4 -6 10 -25 14 -25 6z"/>
<path d="M3615 1700 c-3 -6 1 -7 9 -4 18 7 21 14 7 14 -6 0 -13 -4 -16 -10z"/>
<path d="M4345 1690 c4 -6 11 -8 16 -5 14 9 11 15 -7 15 -8 0 -12 -5 -9 -10z"/>
<path d="M5418 3033 c7 -3 16 -2 19 1 4 3 -2 6 -13 5 -11 0 -14 -3 -6 -6z"/>
<path d="M5450 3016 c0 -2 7 -7 16 -10 8 -3 12 -2 9 4 -6 10 -25 14 -25 6z"/>
<path d="M5347 2759 c7 -7 15 -10 18 -7 3 3 -2 9 -12 12 -14 6 -15 5 -6 -5z"/>
<path d="M5560 2659 c0 -5 5 -7 10 -4 6 3 10 8 10 11 0 2 -4 4 -10 4 -5 0 -10
-5 -10 -11z"/>
<path d="M5338 2313 c7 -3 16 -2 19 1 4 3 -2 6 -13 5 -11 0 -14 -3 -6 -6z"/>
<path d="M5516 2305 c10 -8 23 -15 28 -15 6 0 1 7 -10 15 -10 8 -23 15 -28 15
-6 0 -1 -7 10 -15z"/>
<path d="M5454 2266 c11 -9 24 -16 30 -16 12 0 7 5 -24 19 -24 11 -24 11 -6
-3z"/>
<path d="M5380 2256 c0 -2 8 -10 18 -17 15 -13 16 -12 3 4 -13 16 -21 21 -21
13z"/>
<path d="M5450 2246 c0 -3 9 -10 20 -16 11 -6 20 -8 20 -6 0 3 -9 10 -20 16
-11 6 -20 8 -20 6z"/>
<path d="M5370 2186 c0 -2 8 -10 18 -17 15 -13 16 -12 3 4 -13 16 -21 21 -21
13z"/>
<path d="M5358 2123 c7 -3 16 -2 19 1 4 3 -2 6 -13 5 -11 0 -14 -3 -6 -6z"/>
<path d="M5343 2057 c0 -8 6 -14 14 -14 9 0 10 4 2 14 -6 7 -12 13 -14 13 -1
0 -2 -6 -2 -13z"/>
<path d="M6196 1993 c-6 -14 -5 -15 5 -6 7 7 10 15 7 18 -3 3 -9 -2 -12 -12z"/>
<path d="M5390 1876 c7 -7 13 -7 20 0 6 6 3 10 -10 10 -13 0 -16 -4 -10 -10z"/>
<path d="M5504 1882 c3 -6 -2 -15 -11 -21 -10 -6 -13 -11 -7 -11 20 0 37 27
23 36 -7 4 -9 3 -5 -4z"/>
<path d="M5560 1846 c0 -2 7 -7 16 -10 8 -3 12 -2 9 4 -6 10 -25 14 -25 6z"/>
<path d="M5400 1836 c0 -2 7 -7 16 -10 8 -3 12 -2 9 4 -6 10 -25 14 -25 6z"/>
<path d="M6080 1820 c-9 -6 -10 -10 -3 -10 6 0 15 5 18 10 8 12 4 12 -15 0z"/>
<path d="M6030 1781 c0 -5 9 -7 20 -4 11 3 20 7 20 9 0 2 -9 4 -20 4 -11 0
-20 -4 -20 -9z"/>
<path d="M5688 1773 c7 -3 16 -2 19 1 4 3 -2 6 -13 5 -11 0 -14 -3 -6 -6z"/>
<path d="M5743 1773 c9 -2 25 -2 35 0 9 3 1 5 -18 5 -19 0 -27 -2 -17 -5z"/>
<path d="M5808 1773 c7 -3 16 -2 19 1 4 3 -2 6 -13 5 -11 0 -14 -3 -6 -6z"/>
<path d="M5395 1730 c3 -6 -2 -10 -12 -11 -10 0 -13 -3 -6 -5 7 -3 20 -1 29 4
15 8 15 9 0 15 -10 4 -15 3 -11 -3z"/>
<path d="M5744 1714 c-18 -14 -18 -15 4 -4 12 6 22 13 22 15 0 8 -5 6 -26 -11z"/>
<path d="M5790 1726 c0 -2 9 -6 20 -9 11 -3 18 -1 14 4 -5 9 -34 13 -34 5z"/>
<path d="M6090 1726 c0 -2 7 -7 16 -10 8 -3 12 -2 9 4 -6 10 -25 14 -25 6z"/>
<path d="M5460 1716 c0 -2 8 -10 18 -17 15 -13 16 -12 3 4 -13 16 -21 21 -21
13z"/>
<path d="M5410 1700 c-23 -7 -23 -8 -3 -9 12 -1 25 4 28 9 3 6 5 10 3 9 -2 -1
-14 -5 -28 -9z"/>
<path d="M5520 1700 c0 -6 7 -10 15 -10 8 0 15 2 15 4 0 2 -7 6 -15 10 -8 3
-15 1 -15 -4z"/>
<path d="M5658 1703 c7 -3 16 -2 19 1 4 3 -2 6 -13 5 -11 0 -14 -3 -6 -6z"/>
<path d="M6108 1693 c6 -2 18 -2 25 0 6 3 1 5 -13 5 -14 0 -19 -2 -12 -5z"/>
<path d="M6883 3033 c9 -2 23 -2 30 0 6 3 -1 5 -18 5 -16 0 -22 -2 -12 -5z"/>
<path d="M6960 3030 c0 -5 7 -7 15 -4 8 4 15 8 15 10 0 2 -7 4 -15 4 -8 0 -15
-4 -15 -10z"/>
<path d="M6976 2760 c-3 -8 -24 -67 -46 -130 -23 -63 -63 -176 -90 -250 -27
-74 -50 -143 -52 -153 -3 -17 9 -18 202 -17 112 0 205 2 206 3 1 1 -37 103
-85 227 -48 124 -97 250 -108 280 -13 34 -23 49 -27 40z"/>
<path d="M7150 2640 c-9 -6 -10 -10 -3 -10 6 0 15 5 18 10 8 12 4 12 -15 0z"/>
<path d="M7090 2560 c-8 -5 -10 -10 -5 -10 6 0 17 5 25 10 8 5 11 10 5 10 -5
0 -17 -5 -25 -10z"/>
<path d="M6790 2380 c-9 -6 -10 -10 -3 -10 6 0 15 5 18 10 8 12 4 12 -15 0z"/>
<path d="M6960 2186 c0 -7 60 -12 70 -6 6 4 -7 7 -30 8 -22 1 -40 0 -40 -2z"/>
<path d="M7093 2183 c15 -2 37 -2 50 0 12 2 0 4 -28 4 -27 0 -38 -2 -22 -4z"/>
<path d="M6648 2173 c7 -3 16 -2 19 1 4 3 -2 6 -13 5 -11 0 -14 -3 -6 -6z"/>
<path d="M7409 2163 c-13 -16 -12 -17 4 -4 16 13 21 21 13 21 -2 0 -10 -8 -17
-17z"/>
<path d="M7147 2149 c7 -7 15 -10 18 -7 3 3 -2 9 -12 12 -14 6 -15 5 -6 -5z"/>
<path d="M7190 2131 c-8 -6 -17 -8 -21 -5 -4 2 -10 0 -14 -5 -7 -13 35 -5 49
9 12 12 6 13 -14 1z"/>
<path d="M7400 2136 c0 -2 7 -7 16 -10 8 -3 12 -2 9 4 -6 10 -25 14 -25 6z"/>
<path d="M7420 2096 c0 -2 7 -7 16 -10 8 -3 12 -2 9 4 -6 10 -25 14 -25 6z"/>
<path d="M7520 2026 c0 -2 7 -7 16 -10 8 -3 12 -2 9 4 -6 10 -25 14 -25 6z"/>
<path d="M6615 1940 c3 -5 8 -10 11 -10 2 0 4 5 4 10 0 6 -5 10 -11 10 -5 0
-7 -4 -4 -10z"/>
<path d="M7428 1923 c7 -3 16 -2 19 1 4 3 -2 6 -13 5 -11 0 -14 -3 -6 -6z"/>
<path d="M7390 1886 c7 -7 13 -7 20 0 6 6 3 10 -10 10 -13 0 -16 -4 -10 -10z"/>
<path d="M7520 1786 c0 -2 8 -10 18 -17 15 -13 16 -12 3 4 -13 16 -21 21 -21
13z"/>
<path d="M7487 1769 c7 -7 15 -10 18 -7 3 3 -2 9 -12 12 -14 6 -15 5 -6 -5z"/>
<path d="M7337 1752 c-15 -16 -15 -19 -2 -19 8 0 13 3 10 5 -3 3 0 11 6 19 17
20 5 16 -14 -5z"/>
<path d="M6540 1746 c7 -7 13 -7 20 0 6 6 3 10 -10 10 -13 0 -16 -4 -10 -10z"/>
<path d="M6432 1737 c-8 -10 -6 -13 11 -14 12 0 16 1 9 4 -6 3 -10 9 -6 14 8
14 -2 11 -14 -4z"/>
<path d="M7520 1746 c0 -2 7 -7 16 -10 8 -3 12 -2 9 4 -6 10 -25 14 -25 6z"/>
<path d="M7692 1724 c10 -10 20 -16 22 -13 3 3 -5 11 -17 18 -21 13 -21 12 -5
-5z"/>
<path d="M6598 1713 c7 -3 16 -2 19 1 4 3 -2 6 -13 5 -11 0 -14 -3 -6 -6z"/>
<path d="M6550 1700 c-9 -6 -10 -10 -3 -10 6 0 15 5 18 10 8 12 4 12 -15 0z"/>
<path d="M6598 1693 c7 -3 16 -2 19 1 4 3 -2 6 -13 5 -11 0 -14 -3 -6 -6z"/>
<path d="M7458 1693 c7 -3 16 -2 19 1 4 3 -2 6 -13 5 -11 0 -14 -3 -6 -6z"/>
<path d="M1640 1196 c0 -9 30 -14 35 -6 4 6 -3 10 -14 10 -12 0 -21 -2 -21 -4z"/>
<path d="M1470 1186 c0 -2 7 -7 16 -10 8 -3 12 -2 9 4 -6 10 -25 14 -25 6z"/>
<path d="M1425 1169 c-4 -6 -5 -12 -2 -15 2 -3 7 2 10 11 7 17 1 20 -8 4z"/>
<path d="M1595 980 c-3 -6 1 -7 9 -4 18 7 21 14 7 14 -6 0 -13 -4 -16 -10z"/>
<path d="M1450 976 c0 -3 9 -10 20 -16 11 -6 20 -8 20 -6 0 3 -9 10 -20 16
-11 6 -20 8 -20 6z"/>
<path d="M1673 965 c0 -8 4 -12 9 -9 5 3 6 10 3 15 -9 13 -12 11 -12 -6z"/>
<path d="M1637 959 c7 -7 15 -10 18 -7 3 3 -2 9 -12 12 -14 6 -15 5 -6 -5z"/>
<path d="M1710 950 c0 -5 5 -10 11 -10 5 0 7 5 4 10 -3 6 -8 10 -11 10 -2 0
-4 -4 -4 -10z"/>
<path d="M1521 946 c2 -2 18 -6 34 -10 22 -5 26 -4 15 4 -14 9 -59 15 -49 6z"/>
<path d="M1618 933 c7 -3 16 -2 19 1 4 3 -2 6 -13 5 -11 0 -14 -3 -6 -6z"/>
<path d="M1750 909 c0 -5 5 -7 10 -4 6 3 10 8 10 11 0 2 -4 4 -10 4 -5 0 -10
-5 -10 -11z"/>
<path d="M1409 783 c-13 -16 -12 -17 4 -4 9 7 17 15 17 17 0 8 -8 3 -21 -13z"/>
<path d="M1454 785 c8 -8 18 -15 22 -15 3 0 1 7 -6 15 -7 8 -17 15 -22 15 -5
0 -3 -7 6 -15z"/>
<path d="M1685 764 c-16 -12 -17 -16 -5 -27 9 -8 11 -8 6 0 -9 16 13 28 27 14
8 -8 8 -11 -1 -11 -7 0 -12 -5 -12 -11 0 -8 4 -8 14 0 7 6 22 9 32 5 17 -5 17
-4 -1 6 -11 7 -25 18 -30 25 -9 10 -14 10 -30 -1z"/>
<path d="M1412 734 c10 -10 20 -16 22 -13 3 3 -5 11 -17 18 -21 13 -21 12 -5
-5z"/>
<path d="M1446 738 c3 -4 9 -8 15 -8 5 0 9 4 9 8 0 5 -7 9 -15 9 -8 0 -12 -4
-9 -9z"/>
<path d="M1552 744 c4 -3 23 -10 43 -14 21 -5 34 -5 29 -1 -10 10 -80 24 -72
15z"/>
<path d="M1508 733 c7 -3 16 -2 19 1 4 3 -2 6 -13 5 -11 0 -14 -3 -6 -6z"/>
<path d="M1560 710 c-8 -5 -10 -10 -5 -10 6 0 17 5 25 10 8 5 11 10 5 10 -5 0
-17 -5 -25 -10z"/>
<path d="M1610 700 c-9 -6 -10 -10 -3 -10 6 0 15 5 18 10 8 12 4 12 -15 0z"/>
<path d="M4628 1233 c6 -2 18 -2 25 0 6 3 1 5 -13 5 -14 0 -19 -2 -12 -5z"/>
<path d="M4745 1220 c-3 -6 1 -7 9 -4 18 7 21 14 7 14 -6 0 -13 -4 -16 -10z"/>
<path d="M4523 1210 c-13 -5 -23 -11 -23 -14 0 -7 40 6 46 15 6 10 6 10 -23
-1z"/>
<path d="M4610 1216 c0 -2 11 -6 25 -8 13 -3 22 -1 19 3 -5 9 -44 13 -44 5z"/>
<path d="M4688 1173 c7 -3 16 -2 19 1 4 3 -2 6 -13 5 -11 0 -14 -3 -6 -6z"/>
<path d="M4450 1155 c-10 -12 -10 -15 2 -15 8 0 15 7 15 15 0 8 -1 15 -2 15
-2 0 -8 -7 -15 -15z"/>
<path d="M4860 1166 c0 -2 8 -10 18 -17 15 -13 16 -12 3 4 -13 16 -21 21 -21
13z"/>
<path d="M4506 1148 c3 -5 10 -6 15 -3 13 9 11 12 -6 12 -8 0 -12 -4 -9 -9z"/>
<path d="M4582 1139 c-24 -12 -53 -35 -64 -50 -12 -16 -24 -26 -27 -24 -4 2
-7 -4 -8 -13 0 -9 -4 -39 -8 -67 -5 -35 -2 -63 8 -94 9 -25 13 -49 10 -54 -3
-6 -2 -7 4 -4 5 4 23 -8 39 -25 19 -21 23 -29 12 -25 -25 9 -22 0 3 -14 17 -9
20 -8 14 2 -6 9 -3 10 11 4 10 -4 46 -10 80 -13 121 -9 204 69 204 190 -1 155
-145 252 -278 187z"/>
<path d="M4838 1133 c6 -2 18 -2 25 0 6 3 1 5 -13 5 -14 0 -19 -2 -12 -5z"/>
<path d="M4515 1120 c-3 -5 -1 -10 4 -10 6 0 11 5 11 10 0 6 -2 10 -4 10 -3 0
-8 -4 -11 -10z"/>
<path d="M4847 1069 c7 -7 15 -10 18 -7 3 3 -2 9 -12 12 -14 6 -15 5 -6 -5z"/>
<path d="M4905 980 c-3 -6 1 -7 9 -4 18 7 21 14 7 14 -6 0 -13 -4 -16 -10z"/>
<path d="M4400 960 c-8 -5 -10 -10 -5 -10 6 0 17 5 25 10 8 5 11 10 5 10 -5 0
-17 -5 -25 -10z"/>
<path d="M4387 899 c7 -7 15 -10 18 -7 3 3 -2 9 -12 12 -14 6 -15 5 -6 -5z"/>
<path d="M4890 826 c0 -2 8 -10 18 -17 15 -13 16 -12 3 4 -13 16 -21 21 -21
13z"/>
<path d="M4820 766 c0 -2 7 -7 16 -10 8 -3 12 -2 9 4 -6 10 -25 14 -25 6z"/>
<path d="M4485 750 c-3 -6 1 -7 9 -4 18 7 21 14 7 14 -6 0 -13 -4 -16 -10z"/>
<path d="M4805 720 c-3 -6 1 -7 9 -4 18 7 21 14 7 14 -6 0 -13 -4 -16 -10z"/>
<path d="M4618 703 c7 -3 16 -2 19 1 4 3 -2 6 -13 5 -11 0 -14 -3 -6 -6z"/>
<path d="M4669 708 c-7 -23 -4 -35 7 -35 11 0 11 3 1 16 -10 12 -9 14 6 8 11
-4 16 -3 12 3 -5 9 -24 14 -26 8z"/>
<path d="M4746 688 c3 -4 11 -5 19 -1 21 7 19 12 -4 10 -11 0 -18 -5 -15 -9z"/>
<path d="M5690 1206 c0 -2 7 -7 16 -10 8 -3 12 -2 9 4 -6 10 -25 14 -25 6z"/>
<path d="M5407 1149 c7 -9 9 -20 5 -25 -4 -4 1 -2 11 5 9 7 17 16 17 19 0 3
-3 2 -7 -1 -3 -4 -13 -1 -22 6 -14 10 -14 10 -4 -4z"/>
<path d="M5475 1146 c-96 -44 -142 -173 -96 -271 35 -76 95 -115 177 -115 59
0 103 19 141 63 79 91 64 229 -33 303 -42 32 -141 43 -189 20z"/>
<path d="M5326 1142 c-3 -5 1 -9 9 -9 8 0 12 4 9 9 -3 4 -7 8 -9 8 -2 0 -6 -4
-9 -8z"/>
<path d="M5700 1116 c0 -2 8 -10 18 -17 15 -13 16 -12 3 4 -13 16 -21 21 -21
13z"/>
<path d="M5810 970 c-8 -5 -10 -10 -5 -10 6 0 17 5 25 10 8 5 11 10 5 10 -5 0
-17 -5 -25 -10z"/>
<path d="M5340 835 c-14 -8 -20 -14 -14 -15 5 0 19 7 30 15 24 18 16 19 -16 0z"/>
<path d="M5768 808 c5 -5 16 -8 23 -6 8 3 3 7 -10 11 -17 4 -21 3 -13 -5z"/>
<path d="M5690 795 c-7 -9 -8 -15 -2 -15 5 0 12 7 16 15 3 8 4 15 2 15 -2 0
-9 -7 -16 -15z"/>
<path d="M5415 750 c-3 -6 1 -7 9 -4 18 7 21 14 7 14 -6 0 -13 -4 -16 -10z"/>
<path d="M5455 751 c-3 -5 0 -13 6 -17 8 -4 9 -3 5 5 -6 8 0 10 21 6 23 -4 24
-4 8 4 -26 13 -33 13 -40 2z"/>
<path d="M5698 743 c7 -3 16 -2 19 1 4 3 -2 6 -13 5 -11 0 -14 -3 -6 -6z"/>
<path d="M5558 733 c7 -3 16 -2 19 1 4 3 -2 6 -13 5 -11 0 -14 -3 -6 -6z"/>
<path d="M5521 697 c2 -1 13 -9 24 -17 19 -14 19 -14 6 3 -7 9 -18 17 -24 17
-6 0 -8 -1 -6 -3z"/>
<path d="M3096 1188 c3 -5 10 -6 15 -3 13 9 11 12 -6 12 -8 0 -12 -4 -9 -9z"/>
<path d="M3015 1120 c-4 -6 1 -7 11 -3 13 5 15 3 9 -7 -5 -9 -4 -11 4 -6 6 4
9 12 6 17 -8 12 -22 12 -30 -1z"/>
<path d="M3090 1118 c0 -7 -20 -64 -44 -126 -29 -72 -40 -114 -34 -119 7 -3 8
-1 4 5 -5 9 20 12 93 12 l100 0 -19 33 c-10 17 -33 69 -50 114 -29 78 -50 111
-50 81z"/>
<path d="M3180 1086 c7 -7 13 -7 20 0 6 6 3 10 -10 10 -13 0 -16 -4 -10 -10z"/>
<path d="M3025 1080 c3 -6 1 -10 -6 -10 -7 0 -10 -3 -6 -6 3 -3 13 -2 22 4 16
8 16 9 1 15 -10 4 -15 3 -11 -3z"/>
<path d="M3175 1060 c-3 -6 1 -7 9 -4 18 7 21 14 7 14 -6 0 -13 -4 -16 -10z"/>
<path d="M3186 956 c3 -8 14 -16 25 -19 25 -7 24 -3 -6 17 -19 13 -23 13 -19
2z"/>
<path d="M2945 930 c-2 -3 5 -6 15 -7 11 -1 22 2 24 5 3 4 -4 8 -15 8 -11 0
-22 -3 -24 -6z"/>
<path d="M2965 890 c-3 -6 1 -7 9 -4 18 7 21 14 7 14 -6 0 -13 -4 -16 -10z"/>
<path d="M3098 873 c7 -3 16 -2 19 1 4 3 -2 6 -13 5 -11 0 -14 -3 -6 -6z"/>
<path d="M3130 876 c0 -2 11 -6 25 -8 13 -3 22 -1 19 3 -5 9 -44 13 -44 5z"/>
<path d="M3038 853 c7 -3 16 -2 19 1 4 3 -2 6 -13 5 -11 0 -14 -3 -6 -6z"/>
<path d="M3106 835 c-11 -8 -16 -15 -10 -15 5 0 18 7 28 15 11 8 16 15 10 15
-5 0 -18 -7 -28 -15z"/>
<path d="M3045 830 c-13 -6 -15 -9 -5 -9 8 0 22 4 30 9 18 12 2 12 -25 0z"/>
<path d="M2848 718 c5 -5 16 -8 23 -6 8 3 3 7 -10 11 -17 4 -21 3 -13 -5z"/>
<path d="M2904 722 c3 -5 0 -13 -6 -15 -9 -4 -10 -6 -1 -6 17 -1 25 16 12 25
-7 4 -9 3 -5 -4z"/>
<path d="M6287 1219 c7 -7 15 -10 18 -7 3 3 -2 9 -12 12 -14 6 -15 5 -6 -5z"/>
<path d="M6235 1210 c-3 -5 -13 -7 -23 -4 -13 5 -14 4 -3 -4 11 -8 11 -10 0
-15 -8 -3 -9 -6 -3 -6 6 -1 19 8 29 19 10 11 15 20 12 20 -3 0 -8 -4 -12 -10z"/>
<path d="M6347 1179 c7 -7 15 -10 18 -7 3 3 -2 9 -12 12 -14 6 -15 5 -6 -5z"/>
<path d="M6488 1163 c6 -2 9 -10 6 -15 -4 -7 -2 -8 5 -4 13 9 5 26 -12 25 -9
0 -8 -2 1 -6z"/>
<path d="M6260 955 l0 -194 75 4 c69 4 156 33 170 56 3 4 13 6 23 3 12 -4 13
-3 4 3 -10 7 -9 16 4 42 12 24 15 52 12 106 -3 68 -6 77 -37 109 -42 44 -106
66 -188 66 l-63 0 0 -195z"/>
<path d="M6216 1002 c-3 -5 1 -9 9 -9 8 0 12 4 9 9 -3 4 -7 8 -9 8 -2 0 -6 -4
-9 -8z"/>
<path d="M6628 983 c7 -3 16 -2 19 1 4 3 -2 6 -13 5 -11 0 -14 -3 -6 -6z"/>
<path d="M6198 973 c7 -3 16 -2 19 1 4 3 -2 6 -13 5 -11 0 -14 -3 -6 -6z"/>
<path d="M6601 831 c-8 -5 -21 -7 -30 -4 -13 4 -14 3 -2 -5 14 -10 51 0 51 13
0 7 -3 6 -19 -4z"/>
<path d="M6455 775 c-16 -8 -23 -14 -15 -14 8 0 26 6 40 14 32 18 15 18 -25 0z"/>
<path d="M6230 750 c-9 -6 -10 -10 -3 -10 6 0 15 5 18 10 8 12 4 12 -15 0z"/>
<path d="M6353 743 c9 -2 23 -2 30 0 6 3 -1 5 -18 5 -16 0 -22 -2 -12 -5z"/>
<path d="M6530 740 c-9 -6 -10 -10 -3 -10 6 0 15 5 18 10 8 12 4 12 -15 0z"/>
<path d="M6292 731 c-11 -7 -11 -9 0 -14 9 -3 15 1 15 9 0 8 -1 14 -1 14 -1 0
-7 -4 -14 -9z"/>
<path d="M6294 688 c10 -6 22 -6 26 -2 5 5 -3 10 -18 11 -22 1 -24 0 -8 -9z"/>
<path d="M2222 1221 c-11 -6 -10 -10 4 -15 9 -3 19 -4 22 -1 3 3 -1 5 -9 5
-11 0 -11 2 1 10 8 5 11 10 5 10 -5 0 -16 -4 -23 -9z"/>
<path d="M2328 1203 c7 -3 16 -2 19 1 4 3 -2 6 -13 5 -11 0 -14 -3 -6 -6z"/>
<path d="M2360 1176 c0 -2 7 -7 16 -10 8 -3 12 -2 9 4 -6 10 -25 14 -25 6z"/>
<path d="M2196 1117 c3 -10 9 -15 12 -12 3 3 0 11 -7 18 -10 9 -11 8 -5 -6z"/>
<path d="M2140 1070 c-6 -11 -8 -20 -6 -20 3 0 10 9 16 20 6 11 8 20 6 20 -3
0 -10 -9 -16 -20z"/>
<path d="M2248 983 c12 -2 30 -2 40 0 9 3 -1 5 -23 4 -22 0 -30 -2 -17 -4z"/>
<path d="M2150 969 c0 -5 5 -7 10 -4 6 3 10 8 10 11 0 2 -4 4 -10 4 -5 0 -10
-5 -10 -11z"/>
<path d="M2138 943 c7 -3 16 -2 19 1 4 3 -2 6 -13 5 -11 0 -14 -3 -6 -6z"/>
<path d="M2173 913 c0 -9 4 -10 14 -2 7 6 13 12 13 14 0 1 -6 2 -13 2 -8 0
-14 -6 -14 -14z"/>
<path d="M2180 870 c0 -6 7 -10 15 -10 8 0 15 2 15 4 0 2 -7 6 -15 10 -8 3
-15 1 -15 -4z"/>
<path d="M2157 759 c7 -7 15 -10 18 -7 3 3 -2 9 -12 12 -14 6 -15 5 -6 -5z"/>
<path d="M2288 743 c7 -3 16 -2 19 1 4 3 -2 6 -13 5 -11 0 -14 -3 -6 -6z"/>
<path d="M2368 743 c12 -2 30 -2 40 0 9 3 -1 5 -23 4 -22 0 -30 -2 -17 -4z"/>
<path d="M2474 735 c1 -8 6 -18 11 -22 4 -4 5 -3 1 4 -3 6 2 16 11 22 16 9 16
10 -4 11 -13 0 -20 -6 -19 -15z"/>
<path d="M2264 718 c-4 -7 -3 -8 4 -4 7 4 21 1 33 -8 l21 -14 -23 -4 c-13 -3
-1 -5 26 -5 28 0 43 2 35 4 -46 14 -46 14 -26 29 11 8 15 14 10 14 -6 0 -16
-6 -23 -12 -11 -10 -14 -10 -18 0 -6 15 -29 16 -39 0z"/>
<path d="M2158 713 c6 -2 18 -2 25 0 6 3 1 5 -13 5 -14 0 -19 -2 -12 -5z"/>
<path d="M2205 710 c-2 -3 5 -7 16 -7 10 -1 19 2 19 6 0 9 -29 10 -35 1z"/>
<path d="M2158 683 c7 -3 16 -2 19 1 4 3 -2 6 -13 5 -11 0 -14 -3 -6 -6z"/>
<path d="M3846 1214 c-5 -13 -3 -14 6 -6 7 5 24 12 38 15 22 4 21 4 -6 6 -21
1 -34 -5 -38 -15z"/>
<path d="M4048 1223 c6 -2 18 -2 25 0 6 3 1 5 -13 5 -14 0 -19 -2 -12 -5z"/>
<path d="M3967 1205 c3 -9 8 -14 11 -11 2 3 13 1 23 -5 11 -5 19 -7 19 -5 0 3
-13 12 -30 21 -27 14 -29 14 -23 0z"/>
<path d="M3802 1192 c-8 -6 -2 -9 18 -9 20 0 26 3 18 9 -7 4 -15 8 -18 8 -3 0
-11 -4 -18 -8z"/>
<path d="M3898 1163 c7 -3 16 -2 19 1 4 3 -2 6 -13 5 -11 0 -14 -3 -6 -6z"/>
<path d="M3958 1163 c7 -3 16 -2 19 1 4 3 -2 6 -13 5 -11 0 -14 -3 -6 -6z"/>
<path d="M4038 1163 c7 -3 16 -2 19 1 4 3 -2 6 -13 5 -11 0 -14 -3 -6 -6z"/>
<path d="M3837 973 c18 -2 50 -2 70 0 21 2 7 4 -32 4 -38 0 -55 -2 -38 -4z"/>
<path d="M3973 973 c9 -2 25 -2 35 0 9 3 1 5 -18 5 -19 0 -27 -2 -17 -5z"/>
<path d="M3727 953 c15 -3 20 -9 17 -21 -5 -13 -4 -14 4 -3 5 7 16 10 23 7 8
-4 5 0 -5 8 -11 9 -29 15 -40 15 -20 -2 -20 -2 1 -6z"/>
<path d="M3815 940 c6 -10 4 -12 -9 -7 -10 4 -15 3 -11 -3 8 -13 35 -13 35 -1
0 6 -5 13 -12 17 -7 5 -8 3 -3 -6z"/>
<path d="M3857 943 c-4 -3 -7 -11 -7 -17 0 -7 3 -7 8 0 4 7 18 14 32 17 l25 4
-26 2 c-14 0 -29 -2 -32 -6z"/>
<path d="M4008 923 c7 -3 16 -2 19 1 4 3 -2 6 -13 5 -11 0 -14 -3 -6 -6z"/>
<path d="M3718 883 c7 -3 16 -2 19 1 4 3 -2 6 -13 5 -11 0 -14 -3 -6 -6z"/>
<path d="M3760 840 c-9 -6 -10 -10 -3 -10 6 0 15 5 18 10 8 12 4 12 -15 0z"/>
<path d="M3703 815 c0 -8 4 -12 9 -9 5 3 6 10 3 15 -9 13 -12 11 -12 -6z"/>
<path d="M3718 773 c7 -3 16 -2 19 1 4 3 -2 6 -13 5 -11 0 -14 -3 -6 -6z"/>
<path d="M3775 770 c-4 -6 -11 -7 -17 -4 -7 4 -8 2 -4 -5 6 -9 11 -9 22 0 14
11 18 19 10 19 -3 0 -8 -5 -11 -10z"/>
</g>
</svg>
